<svg xmlns="http://www.w3.org/2000/svg" viewBox="0 0 306 206.02"><defs><style>.cls-1{fill:#231f20;}</style></defs><g id="Layer_2" data-name="Layer 2"><g id="Layer_1-2" data-name="Layer 1"><path class="cls-1" d="M143.72,114.88a16.46,16.46,0,0,0-1.23-7.55c-1.55-3.73-6.23-5.34-6.23-5.34s-1.13,5.39,1.08,8.94a12.14,12.14,0,0,0,3.32,3.16,57.09,57.09,0,0,1-6.68-2.38,15.91,15.91,0,0,0,.1-7.52C133.23,100.32,129,98,129,98s-2,5-.48,8.82a12.37,12.37,0,0,0,2.71,3.65c-1.31-.64-2.66-1.35-4-2.16-.75-.41-1.51-.86-2.28-1.34a15.51,15.51,0,0,0,1.42-7.31c-.17-3.88-3.87-6.87-3.87-6.87s-2.79,4.5-2,8.42a12.69,12.69,0,0,0,2.18,4.26,53.74,53.74,0,0,1-5.83-4.87,15.4,15.4,0,0,0,2.63-6.85c.49-3.77-2.56-7.28-2.56-7.28s-3.46,3.86-3.33,7.79a12.13,12.13,0,0,0,1.35,4.4,60.1,60.1,0,0,1-4.83-5.8,15.13,15.13,0,0,0,3.64-6.1c1.12-3.56-1.23-7.47-1.23-7.47s-4,3.14-4.54,6.95a11.43,11.43,0,0,0,.49,4.26,58,58,0,0,1-3.66-6.29,14.83,14.83,0,0,0,4.59-5.3c1.68-3.23.08-7.41.08-7.41s-4.39,2.35-5.57,5.94a11.69,11.69,0,0,0-.22,4.41,56.08,56.08,0,0,1-2.63-7,14.49,14.49,0,0,0,5.4-4.37c2.18-2.84,1.35-7.14,1.35-7.14s-4.64,1.52-6.39,4.78a12.3,12.3,0,0,0-1,4.5A52.76,52.76,0,0,1,99,64.88a14,14,0,0,0,6-3.3c2.59-2.38,2.51-6.67,2.51-6.67s-4.73.68-7,3.53a11.81,11.81,0,0,0-1.73,4.21,51.4,51.4,0,0,1-.11-8.13,13.71,13.71,0,0,0,6.45-2.17c2.9-1.85,3.56-6,3.56-6s-4.68-.14-7.33,2.23a12,12,0,0,0-2.52,4.08,56.05,56.05,0,0,1,1.51-8.46,13.62,13.62,0,0,0,6.58-1c3.11-1.29,4.45-5.19,4.45-5.19s-4.49-.94-7.45.9a11.65,11.65,0,0,0-3.06,3.39,62.6,62.6,0,0,1,2.95-7.94,13.29,13.29,0,0,0,6.52.16c3.23-.72,5.18-4.26,5.18-4.26s-4.18-1.67-7.34-.4a11.37,11.37,0,0,0-3.54,2.77,62,62,0,0,1,3.24-5.78,6.51,6.51,0,0,0,3.51-2.69,9.89,9.89,0,0,0,1.28-5.3s-3.11,1.21-4.27,2.69a8.25,8.25,0,0,0-1.31,4.94c-1,1.52-1.93,3.11-2.8,4.76a11.82,11.82,0,0,0,.36-4.63c-.72-3.34-4.44-5.87-4.44-5.87s-1.84,3.6-.63,6.68a13.17,13.17,0,0,0,3.9,5.43,61.69,61.69,0,0,0-3.19,7.79,11.61,11.61,0,0,0-.48-4.37c-1.32-3.23-5.5-5.11-5.5-5.11s-1.21,3.94.54,6.82a13.55,13.55,0,0,0,4.8,4.71A57.27,57.27,0,0,0,98,50.46a10.92,10.92,0,0,0-1.18-3.81c-1.9-3-6.44-4.15-6.44-4.15s-.52,4.17,1.76,6.75a14,14,0,0,0,5.53,3.85,53,53,0,0,0-.22,7.78,10.8,10.8,0,0,0-1.84-3.54c-2.43-2.69-7.2-3-7.2-3s.22,4.29,3,6.48a14.07,14.07,0,0,0,6.27,2.88,52,52,0,0,0,1,7.32,10.92,10.92,0,0,0-2.42-3.13c-2.93-2.27-7.78-1.77-7.78-1.77s1,4.26,4.12,6a14.5,14.5,0,0,0,6.76,1.79,57.67,57.67,0,0,0,2.35,7,11.21,11.21,0,0,0-3-2.77c-3.34-1.76-8.13-.41-8.13-.41s1.74,4.13,5.2,5.29a14.88,14.88,0,0,0,7.13.6,63.34,63.34,0,0,0,3.54,6.56,11.42,11.42,0,0,0-3.58-2.29c-3.67-1.18-8.24,1-8.24,1s2.48,3.83,6.16,4.39a15,15,0,0,0,7.27-.67,62.17,62.17,0,0,0,4.36,5.65,11.08,11.08,0,0,0-3.68-1.47c-3.89-.54-8.1,2.5-8.1,2.5s3.17,3.4,7,3.31a15.46,15.46,0,0,0,7.06-1.88,55,55,0,0,0,5,4.61,10.72,10.72,0,0,0-3.62-.7c-4,.14-7.7,3.94-7.7,3.94s3.79,2.86,7.6,2.09a15.8,15.8,0,0,0,6.7-3.09,42.54,42.54,0,0,0,3.64,2.27c.78.46,1.53.89,2.29,1.29a11.09,11.09,0,0,0-3.92-.09c-4,.86-7,5.32-7,5.32s4.32,2.21,8,.76a16,16,0,0,0,6.23-4.34,63.52,63.52,0,0,0,6.26,2.52,11,11,0,0,0-3.88.6c-3.87,1.57-6.13,6.59-6.13,6.59s4.73,1.45,8.18-.65a16.44,16.44,0,0,0,5.47-5.45,62,62,0,0,0,7,1.46L145,115.16Z"/><path class="cls-1" d="M214,72.06c3.14-1.72,4.12-6,4.12-6s-4.85-.5-7.77,1.77A10.75,10.75,0,0,0,208,71a53.49,53.49,0,0,0,1-7.32,14,14,0,0,0,6.27-2.88c2.74-2.19,3-6.48,3-6.48s-4.77.35-7.2,3a10.8,10.8,0,0,0-1.84,3.54,54.42,54.42,0,0,0-.21-7.78,14.11,14.11,0,0,0,5.53-3.85c2.27-2.58,1.75-6.75,1.75-6.75s-4.54,1.15-6.43,4.15a10.71,10.71,0,0,0-1.18,3.81,58.84,58.84,0,0,0-1.72-7.78,13.47,13.47,0,0,0,4.8-4.71c1.75-2.88.55-6.82.55-6.82s-4.19,1.88-5.5,5.11a11.41,11.41,0,0,0-.49,4.37,60.24,60.24,0,0,0-3.19-7.79A13.25,13.25,0,0,0,207,27.41c1.2-3.08-.64-6.68-.64-6.68s-3.72,2.53-4.44,5.87a11.82,11.82,0,0,0,.36,4.63c-.87-1.65-1.81-3.24-2.79-4.76a8.2,8.2,0,0,0-1.32-4.94c-1.16-1.48-4.27-2.69-4.27-2.69a10,10,0,0,0,1.29,5.3,6.47,6.47,0,0,0,3.51,2.69,64.35,64.35,0,0,1,3.24,5.78,11.61,11.61,0,0,0-3.54-2.77c-3.17-1.27-7.35.4-7.35.4s2,3.54,5.18,4.26a13.28,13.28,0,0,0,6.52-.16,61.1,61.1,0,0,1,2.95,7.94,11.76,11.76,0,0,0-3-3.39c-3-1.84-7.46-.9-7.46-.9s1.34,3.9,4.45,5.19a13.65,13.65,0,0,0,6.59,1,56.05,56.05,0,0,1,1.51,8.46,12.22,12.22,0,0,0-2.53-4.08c-2.64-2.37-7.33-2.23-7.33-2.23s.66,4.16,3.56,6a13.77,13.77,0,0,0,6.45,2.17,52.61,52.61,0,0,1-.1,8.13A12,12,0,0,0,206,58.44c-2.23-2.85-7-3.53-7-3.53s-.07,4.29,2.51,6.67a14.07,14.07,0,0,0,6,3.3,52.76,52.76,0,0,1-1.38,7.7,12.1,12.1,0,0,0-1-4.5c-1.75-3.26-6.38-4.78-6.38-4.78s-.84,4.3,1.34,7.14a14.49,14.49,0,0,0,5.4,4.37,56,56,0,0,1-2.62,7,11.89,11.89,0,0,0-.23-4.41c-1.18-3.59-5.57-5.94-5.57-5.94s-1.6,4.18.08,7.41a14.83,14.83,0,0,0,4.59,5.3,59.67,59.67,0,0,1-3.65,6.29,11.42,11.42,0,0,0,.48-4.26c-.54-3.81-4.53-6.95-4.53-6.95s-2.36,3.91-1.24,7.47a15.13,15.13,0,0,0,3.64,6.1,61.52,61.52,0,0,1-4.82,5.8,12.53,12.53,0,0,0,1.35-4.4c.12-3.93-3.34-7.79-3.34-7.79s-3,3.51-2.56,7.28a15.4,15.4,0,0,0,2.63,6.85,52.8,52.8,0,0,1-5.83,4.87,12.72,12.72,0,0,0,2.19-4.26c.82-3.92-2-8.42-2-8.42s-3.69,3-3.87,6.87a15.63,15.63,0,0,0,1.42,7.31c-.76.48-1.52.93-2.28,1.34-1.38.81-2.72,1.52-4,2.16a12.24,12.24,0,0,0,2.72-3.65c1.52-3.81-.49-8.82-.49-8.82s-4.24,2.35-5.1,6.22a15.91,15.91,0,0,0,.1,7.52,57.64,57.64,0,0,1-6.67,2.38,12.43,12.43,0,0,0,3.32-3.16c2.2-3.55,1.07-8.94,1.07-8.94s-4.68,1.61-6.22,5.34a16.37,16.37,0,0,0-1.24,7.55l-1.31.28-3.68,2.67a61.13,61.13,0,0,0,7-1.46,16.49,16.49,0,0,0,5.48,5.45c3.45,2.1,8.18.65,8.18.65s-2.26-5-6.13-6.59a11,11,0,0,0-3.89-.6,61.61,61.61,0,0,0,6.26-2.52A16.08,16.08,0,0,0,181,117.1c3.69,1.45,8-.76,8-.76s-3-4.46-7-5.32a11.09,11.09,0,0,0-3.92.09q1.13-.6,2.28-1.29a42.54,42.54,0,0,0,3.64-2.27,15.79,15.79,0,0,0,6.71,3.09c3.8.77,7.59-2.09,7.59-2.09s-3.69-3.8-7.7-3.94a10.62,10.62,0,0,0-3.61.7,56.33,56.33,0,0,0,5-4.61,15.38,15.38,0,0,0,7.06,1.88c3.8.09,7-3.31,7-3.31s-4.2-3-8.1-2.5a11.16,11.16,0,0,0-3.68,1.47,62.17,62.17,0,0,0,4.36-5.65,15,15,0,0,0,7.27.67c3.68-.56,6.16-4.39,6.16-4.39s-4.57-2.21-8.23-1a11.46,11.46,0,0,0-3.59,2.29,61.5,61.5,0,0,0,3.54-6.56,14.88,14.88,0,0,0,7.13-.6c3.46-1.16,5.2-5.29,5.2-5.29s-4.79-1.35-8.13.41a11.18,11.18,0,0,0-3,2.77,57.63,57.63,0,0,0,2.34-7A14.5,14.5,0,0,0,214,72.06Z"/><polygon class="cls-1" points="153.3 109.18 154.93 114.21 160.22 114.21 155.94 117.31 157.57 122.33 153.3 119.23 149.03 122.33 150.66 117.31 146.39 114.21 151.67 114.21 153.3 109.18"/><path class="cls-1" d="M185.61,34.3a95.91,95.91,0,0,0-31.88-5.22,106,106,0,0,0-33.07,5.31,67.86,67.86,0,0,0-1,25.8,53.67,53.67,0,0,0,13.77,28.72c3.84-11.91,22.81-21,22.81-27.83a6.78,6.78,0,0,0-6.78-6.78l-.39,0a6,6,0,0,1-.38,12A5.92,5.92,0,0,1,145,65.06a15.06,15.06,0,0,0-8.25,8.5,4.91,4.91,0,0,1-5.15-.25c-1.09-.58-2.28-4.84-1.71-6.13,4-8.88,14.88-21.37,14.88-21.37a4.79,4.79,0,0,1-2.28-3.75c-.37-1.88-2.89-2.06-2.89-2.06,13.61-4.53,11.68,9.26,11.68,9.26a9.35,9.35,0,0,0,1.13-4.41,28.3,28.3,0,0,1,18.14,45.87c1.14-1.13,2.27-2.35,3.38-3.64,1.29-1.51,2.49-3,3.6-4.61a30.53,30.53,0,0,0-25.24-39.84A8.7,8.7,0,0,0,150.77,40,7.24,7.24,0,0,0,148.14,38c.75-.05,1.51-.08,2.27-.08a32,32,0,0,1,31.53,37.3C188.1,63.09,189.34,49.38,185.61,34.3Z"/><polygon class="cls-1" points="144.19 49.73 139.52 55.53 142.54 54.81 144.19 49.73"/><path class="cls-1" d="M189.65,32.66a3.15,3.15,0,0,0-1.93-2.18,86.64,86.64,0,0,0-16.37-4.28C173.81,17,180,13.12,180,13.12c-4.49-1-6.69,1.83-6.69,1.83s-2.15-3.08-4.93-3.08a4,4,0,0,0-3.7,2.07,3.72,3.72,0,0,1,5,3.27c0,1.37-1.12,3.8-3.58,3.8s-3.89-3.38-3.89-3.83.8-1,.8-1.83A1.2,1.2,0,0,0,162,14a1.32,1.32,0,0,0-1.06,1.31c0,.68.55,1.23.55,1.81,0,1-1.85,2.84-3.86,2.84s-3.46-2.1-3.46-4.47,1.45-4.45,3.22-4.45a6.21,6.21,0,0,1,3.36,1.3s.46-4.33-1.79-5.47a5.4,5.4,0,0,0-4.66.22c1.42-3.8-1.58-7.13-1.58-7.13s-3,3.33-1.57,7.13a5.4,5.4,0,0,0-4.66-.22c-2.26,1.14-1.79,5.47-1.79,5.47a6.17,6.17,0,0,1,3.36-1.3c1.76,0,3.21,2.07,3.21,4.45S149.78,20,147.77,20s-3.85-1.88-3.85-2.84c0-.58.55-1.13.55-1.81A1.32,1.32,0,0,0,143.4,14a1.2,1.2,0,0,0-1,1.31c0,.81.79,1.37.79,1.83S141.73,21,139.27,21s-3.57-2.43-3.57-3.8a3.72,3.72,0,0,1,5-3.27A4,4,0,0,0,137,11.87c-2.78,0-4.92,3.08-4.92,3.08s-2.2-2.85-6.7-1.83c0,0,6.32,3.93,8.72,13.41a111.54,111.54,0,0,0-15.4,3.95,3.17,3.17,0,0,0-2.07,2.22,71.93,71.93,0,0,0-1.23,28.17c3.34,20.93,15.72,36.61,36.79,46.6a3.15,3.15,0,0,0,1.37.31,3.21,3.21,0,0,0,1.42-.33A75.08,75.08,0,0,0,177.24,89.9C191.06,73.79,195.24,54.54,189.65,32.66ZM172.56,15.78A1.22,1.22,0,1,1,171.34,17,1.21,1.21,0,0,1,172.56,15.78Zm-11.19,3.81a1.22,1.22,0,1,1-1.21,1.21A1.21,1.21,0,0,1,161.37,19.59Zm-8.69-11a1.22,1.22,0,1,1,0,2.43,1.22,1.22,0,0,1,0-2.43Zm0,11a1.22,1.22,0,1,1-1.21,1.21A1.22,1.22,0,0,1,152.68,19.59Zm-9.06,0a1.22,1.22,0,1,1-1.22,1.21A1.22,1.22,0,0,1,143.62,19.59Zm-10.81-1.38A1.22,1.22,0,1,1,134,17,1.22,1.22,0,0,1,132.81,18.21Zm42.88,70.35a73,73,0,0,1-21.62,17.06,1.26,1.26,0,0,1-.51.11,1,1,0,0,1-.48-.11c-20.43-9.69-32.42-24.85-35.65-45.07a69.93,69.93,0,0,1,1.18-27.34,1.15,1.15,0,0,1,.74-.79,108.51,108.51,0,0,1,34.38-5.62c17.47,0,29.87,4.28,33.25,5.59a1.11,1.11,0,0,1,.69.78C193.08,54.36,189.05,73,175.69,88.56Z"/><path class="cls-1" d="M60.58,189.77v-.44h5.77v.44h-.61a1.66,1.66,0,0,0-1.48.81,3.65,3.65,0,0,0-.25,1.73v6.61a11.53,11.53,0,0,1-.49,3.81,4.77,4.77,0,0,1-1.91,2.32,6.85,6.85,0,0,1-3.88,1,7.26,7.26,0,0,1-4-.93,5.08,5.08,0,0,1-2-2.49,13.69,13.69,0,0,1-.38-4v-6.38a3.15,3.15,0,0,0-.42-2,1.72,1.72,0,0,0-1.34-.47H49v-.44h7v.44h-.62a1.61,1.61,0,0,0-1.44.64,3.54,3.54,0,0,0-.31,1.8v7.11a15.29,15.29,0,0,0,.18,2.18,4.81,4.81,0,0,0,.63,1.91,3.36,3.36,0,0,0,1.32,1.13,4.61,4.61,0,0,0,2.11.44,5.87,5.87,0,0,0,2.86-.69,3.7,3.7,0,0,0,1.72-1.79,10.25,10.25,0,0,0,.47-3.69v-6.6a3.33,3.33,0,0,0-.34-1.91,1.77,1.77,0,0,0-1.39-.53Z"/><path class="cls-1" d="M73.68,189.33h4.43l10,12.23v-9.41a3.25,3.25,0,0,0-.34-1.87,1.79,1.79,0,0,0-1.41-.51h-.56v-.44h5.67v.44h-.57a1.66,1.66,0,0,0-1.47.63,3.55,3.55,0,0,0-.27,1.75V205.9H88.7L78,192.77v10a3.27,3.27,0,0,0,.33,1.87,1.78,1.78,0,0,0,1.4.51h.58v.44H74.58v-.44h.57a1.67,1.67,0,0,0,1.48-.63,3.71,3.71,0,0,0,.26-1.75V191.47a8.08,8.08,0,0,0-1.07-1.1,4.25,4.25,0,0,0-1.08-.49,3.87,3.87,0,0,0-1.06-.11Z"/><path class="cls-1" d="M106.78,205.19v.44h-7v-.44h.58a1.77,1.77,0,0,0,1.47-.59,3.74,3.74,0,0,0,.28-1.85V192.21a5.58,5.58,0,0,0-.15-1.63,1.15,1.15,0,0,0-.49-.52,2.36,2.36,0,0,0-1.11-.29h-.58v-.44h7v.44h-.59a1.75,1.75,0,0,0-1.46.59,3.56,3.56,0,0,0-.3,1.85v10.54a5.47,5.47,0,0,0,.16,1.63,1.1,1.1,0,0,0,.51.52,2.2,2.2,0,0,0,1.09.29Z"/><path class="cls-1" d="M132.25,189.33v.44a2.65,2.65,0,0,0-1.31.56,5,5,0,0,0-1.13,1.8L124.12,206h-.44L117.57,192a7.43,7.43,0,0,0-.66-1.32,2.13,2.13,0,0,0-.74-.59,3.43,3.43,0,0,0-1.19-.27v-.44h6.67v.44a2.91,2.91,0,0,0-1.47.39.86.86,0,0,0-.34.71,5.44,5.44,0,0,0,.56,1.87l4.14,9.56,3.85-9.44a6.3,6.3,0,0,0,.57-1.93.91.91,0,0,0-.35-.67,2.34,2.34,0,0,0-1.18-.45l-.2,0v-.44Z"/><path class="cls-1" d="M145.09,190.22v6.44h3.58a2.91,2.91,0,0,0,1.86-.42,2.71,2.71,0,0,0,.7-2h.45V200h-.45a5.84,5.84,0,0,0-.34-1.53,1.48,1.48,0,0,0-.71-.66,3.58,3.58,0,0,0-1.51-.24h-3.58v5.38a5.23,5.23,0,0,0,.09,1.31.76.76,0,0,0,.34.37,1.91,1.91,0,0,0,.91.14h2.77a7.48,7.48,0,0,0,2-.19,3.06,3.06,0,0,0,1.2-.76,8.87,8.87,0,0,0,1.53-2.25h.48L153,205.63H140.45v-.44H141a2.25,2.25,0,0,0,1.1-.28,1,1,0,0,0,.52-.58,5.67,5.67,0,0,0,.14-1.57V192.17a3.49,3.49,0,0,0-.32-1.92,1.84,1.84,0,0,0-1.44-.48h-.57v-.44H153l.18,3.57h-.47a5.52,5.52,0,0,0-.56-1.77,1.87,1.87,0,0,0-.91-.73,5.41,5.41,0,0,0-1.69-.18Z"/><path class="cls-1" d="M179,205.63h-4.35L169.14,198c-.41,0-.74,0-1,0h-.33l-.38,0v4.74a3.28,3.28,0,0,0,.34,1.91,1.71,1.71,0,0,0,1.37.53h.64v.44h-7v-.44h.61a1.63,1.63,0,0,0,1.48-.68,3.68,3.68,0,0,0,.26-1.76V192.21a3.37,3.37,0,0,0-.34-1.91,1.78,1.78,0,0,0-1.4-.53h-.61v-.44h5.94a13.82,13.82,0,0,1,3.83.38,4.32,4.32,0,0,1,2.09,1.39,3.61,3.61,0,0,1,.86,2.42,3.75,3.75,0,0,1-1,2.61,5.53,5.53,0,0,1-3,1.57l3.36,4.67a8.11,8.11,0,0,0,2,2.14,4.92,4.92,0,0,0,2.16.68Zm-11.58-8.38h.68a5.25,5.25,0,0,0,3.51-1,3.23,3.23,0,0,0,1.19-2.57,3.33,3.33,0,0,0-1-2.48,3.42,3.42,0,0,0-2.53-1,11,11,0,0,0-1.89.23Z"/><path class="cls-1" d="M197.47,189v5.63H197a6.79,6.79,0,0,0-.78-2.58,4,4,0,0,0-1.59-1.53,4.47,4.47,0,0,0-2.14-.56,2.92,2.92,0,0,0-2.07.76,2.35,2.35,0,0,0-.82,1.74,2.09,2.09,0,0,0,.52,1.36,13.34,13.34,0,0,0,3.55,2.4,26.22,26.22,0,0,1,3.12,1.88,4.64,4.64,0,0,1,1.29,1.55,4.05,4.05,0,0,1,.45,1.86,4.23,4.23,0,0,1-1.44,3.2,5.22,5.22,0,0,1-3.7,1.34,8,8,0,0,1-1.33-.11,14.07,14.07,0,0,1-1.55-.44,7.07,7.07,0,0,0-1.48-.38.65.65,0,0,0-.48.18,1.54,1.54,0,0,0-.26.75h-.44v-5.6h.44a7.76,7.76,0,0,0,.85,2.63,4,4,0,0,0,1.61,1.45,5.09,5.09,0,0,0,2.39.58,3.38,3.38,0,0,0,2.37-.8,2.41,2.41,0,0,0,.88-1.87,2.57,2.57,0,0,0-.33-1.22,3.74,3.74,0,0,0-1-1.14,29.77,29.77,0,0,0-2.56-1.53,25,25,0,0,1-3-1.87,5,5,0,0,1-1.34-1.54,3.87,3.87,0,0,1-.46-1.85,4,4,0,0,1,1.35-3A4.82,4.82,0,0,1,192.5,189a7,7,0,0,1,2.75.63,2.87,2.87,0,0,0,.95.3.72.72,0,0,0,.51-.18A1.56,1.56,0,0,0,197,189Z"/><path class="cls-1" d="M214.87,205.19v.44h-7v-.44h.58a1.73,1.73,0,0,0,1.46-.59,3.59,3.59,0,0,0,.29-1.85V192.21a5.58,5.58,0,0,0-.15-1.63,1.13,1.13,0,0,0-.5-.52,2.29,2.29,0,0,0-1.1-.29h-.58v-.44h7v.44h-.59a1.75,1.75,0,0,0-1.46.59,3.56,3.56,0,0,0-.3,1.85v10.54a5.14,5.14,0,0,0,.16,1.63,1.13,1.13,0,0,0,.5.52,2.26,2.26,0,0,0,1.1.29Z"/><path class="cls-1" d="M237.11,189.33l.18,3.82h-.46a4.76,4.76,0,0,0-.36-1.44,2.41,2.41,0,0,0-1-1,3.5,3.5,0,0,0-1.63-.33h-2.3v12.46a3.39,3.39,0,0,0,.32,1.87,1.82,1.82,0,0,0,1.41.51h.57v.44h-6.92v-.44h.58a1.66,1.66,0,0,0,1.47-.63,3.71,3.71,0,0,0,.26-1.75V190.35h-2a5.51,5.51,0,0,0-1.62.17,2.14,2.14,0,0,0-1.07.88,3.42,3.42,0,0,0-.53,1.75h-.46l.19-3.82Z"/><path class="cls-1" d="M257,189.33h5.69v.44h-.31a2.38,2.38,0,0,0-.92.28,3.57,3.57,0,0,0-1.09.79,11.6,11.6,0,0,0-1.22,1.69l-3.93,6.19v4.09a3.25,3.25,0,0,0,.34,1.87,1.84,1.84,0,0,0,1.44.51h.53v.44h-6.92v-.44h.57a1.66,1.66,0,0,0,1.47-.63,3.59,3.59,0,0,0,.26-1.75V199l-4.47-6.83a14.64,14.64,0,0,0-1.08-1.51,4,4,0,0,0-1.17-.72,1.6,1.6,0,0,0-.7-.12v-.44h7v.44h-.36a2.07,2.07,0,0,0-1,.27.84.84,0,0,0-.48.79,3.8,3.8,0,0,0,.74,1.56l3.4,5.26,3.2-5a3.69,3.69,0,0,0,.72-1.68,1.08,1.08,0,0,0-.17-.6,1.21,1.21,0,0,0-.5-.42,2.45,2.45,0,0,0-1-.15Z"/><path class="cls-1" d="M14.36,158.26v11.67a11.93,11.93,0,0,0,.32,3.61,2.85,2.85,0,0,0,1.25,1.26,4.89,4.89,0,0,0,2.51.55h1.25v1H0v-1H1.25a5.21,5.21,0,0,0,2.64-.59A2.53,2.53,0,0,0,5,173.43a11.49,11.49,0,0,0,.31-3.5V145.15A12.47,12.47,0,0,0,5,141.54a2.77,2.77,0,0,0-1.24-1.26,5,5,0,0,0-2.51-.54H0v-1H19.69v1H18.44a5.15,5.15,0,0,0-2.63.58,2.58,2.58,0,0,0-1.14,1.33,11.2,11.2,0,0,0-.31,3.5v10.67H27.67V145.15a12.47,12.47,0,0,0-.31-3.61,2.75,2.75,0,0,0-1.25-1.26,5.08,5.08,0,0,0-2.53-.54H22.36v-1H42v1H40.8a5.05,5.05,0,0,0-2.63.58A2.58,2.58,0,0,0,37,141.65a11.2,11.2,0,0,0-.31,3.5v24.78a12.06,12.06,0,0,0,.31,3.61,2.75,2.75,0,0,0,1.25,1.26,5,5,0,0,0,2.52.55H42v1H22.36v-1h1.22a5.11,5.11,0,0,0,2.64-.59,2.67,2.67,0,0,0,1.14-1.33,11.49,11.49,0,0,0,.31-3.5V158.26Z"/><path class="cls-1" d="M69.57,165.65H56.26l-1.58,3.67a8.12,8.12,0,0,0-.78,3,2.5,2.5,0,0,0,1.28,2.33,10.66,10.66,0,0,0,3.69.67v1H46.34v-1a5.67,5.67,0,0,0,3.34-1.68A22.5,22.5,0,0,0,52.9,168l13.47-30.06h.53l13.58,30.89c1.3,2.93,2.36,4.77,3.2,5.53a4.41,4.41,0,0,0,2.66,1v1H68.12v-1h.75a5.77,5.77,0,0,0,3.08-.61,1.5,1.5,0,0,0,.62-1.28,3.42,3.42,0,0,0-.17-1c0-.17-.32-.86-.83-2.08Zm-.95-2.05-5.61-13-5.78,13Z"/><path class="cls-1" d="M127.8,137.85V150.9h-1.09a13.89,13.89,0,0,0-4.55-7.83,11.59,11.59,0,0,0-7.56-2.72,11.16,11.16,0,0,0-6.47,2,11.87,11.87,0,0,0-4.3,5.31,24,24,0,0,0-1.75,9.33,31.31,31.31,0,0,0,1.27,9.21,12.35,12.35,0,0,0,4,6.28,11.13,11.13,0,0,0,7.06,2.12,13.72,13.72,0,0,0,6.51-1.55,22.62,22.62,0,0,0,6.24-5.36V171a20.58,20.58,0,0,1-6.6,4.79,20,20,0,0,1-8,1.49,23,23,0,0,1-10.71-2.42,17.05,17.05,0,0,1-7.22-6.95,19.29,19.29,0,0,1-2.54-9.63A20,20,0,0,1,94.9,148a19.79,19.79,0,0,1,7.61-7.5,20.66,20.66,0,0,1,10.18-2.66,23.12,23.12,0,0,1,8.39,1.72,12.63,12.63,0,0,0,3.25,1,2.13,2.13,0,0,0,1.54-.65,3.61,3.61,0,0,0,.84-2.07Z"/><path class="cls-1" d="M157.45,153.12l13.25,16.59a21.52,21.52,0,0,0,4.83,4.75,6,6,0,0,0,3.11.89v1H159v-1a5.18,5.18,0,0,0,2.4-.59,1.24,1.24,0,0,0,.54-1q0-1.17-2.55-4.39l-8.64-10.86-1.39,1.16v10.28a11.82,11.82,0,0,0,.33,3.67,2.83,2.83,0,0,0,1.28,1.23,6.69,6.69,0,0,0,3,.52v1H135v-1h1.25a5.21,5.21,0,0,0,2.64-.59,2.53,2.53,0,0,0,1.11-1.33,11.49,11.49,0,0,0,.31-3.5V145.15a12.47,12.47,0,0,0-.31-3.61,2.77,2.77,0,0,0-1.24-1.26,5,5,0,0,0-2.51-.54H135v-1h18.75v1a6.16,6.16,0,0,0-2.92.55,2.7,2.7,0,0,0-1.14,1.31,11,11,0,0,0-.33,3.55v11.72l14-11.3q2.92-2.35,2.92-3.78a1.86,1.86,0,0,0-1.2-1.67,9.49,9.49,0,0,0-3-.38v-1h14.69v1a8.46,8.46,0,0,0-3.1.7,45.7,45.7,0,0,0-5.18,3.85Z"/><path class="cls-1" d="M195,138.71l18.58,23.36v-16.2c0-2.25-.32-3.78-1-4.58q-1.34-1.6-4.47-1.55v-1h12.44v1a9.18,9.18,0,0,0-3.2.79,3.17,3.17,0,0,0-1.28,1.58,10.68,10.68,0,0,0-.46,3.76v31.37h-.94l-25.48-31.37v23.95c0,2.17.5,3.63,1.49,4.39a5.45,5.45,0,0,0,3.4,1.14H195v1H181.65v-1c2.08,0,3.52-.45,4.33-1.28s1.23-2.25,1.23-4.25V143.24l-.81-1a7.51,7.51,0,0,0-2.11-2,6.33,6.33,0,0,0-2.64-.52v-1Z"/><path class="cls-1" d="M240.27,140.87v15.34H241q3.58,0,5.2-2.25a13.81,13.81,0,0,0,2.05-6.64h1.06V167h-1.06a14.79,14.79,0,0,0-1.4-5.28,6,6,0,0,0-2.49-2.76,9.45,9.45,0,0,0-4.11-.71V168.9a15,15,0,0,0,.27,3.81,2.28,2.28,0,0,0,1,1.14,4.72,4.72,0,0,0,2.34.44h2.25a12.13,12.13,0,0,0,13-9.89h1l-1.69,12H225.91v-1h1.25a5.21,5.21,0,0,0,2.64-.59,2.53,2.53,0,0,0,1.11-1.33,11.15,11.15,0,0,0,.31-3.5V145.15a20.09,20.09,0,0,0-.14-3.14,2.74,2.74,0,0,0-1-1.5,4.84,4.84,0,0,0-2.89-.77h-1.25v-1h31.53v11.14h-1.06a13.45,13.45,0,0,0-2.26-5.86,8.41,8.41,0,0,0-4.13-2.62,22.43,22.43,0,0,0-5.83-.5Z"/><path class="cls-1" d="M306,138.71v1a5.47,5.47,0,0,0-2.86,1.08c-.92.78-2.39,2.9-4.39,6.36l-8.16,13.64v9.11a12.56,12.56,0,0,0,.3,3.62,2.83,2.83,0,0,0,1.21,1.25,4.54,4.54,0,0,0,2.4.55h2.12v1H275.48v-1h2a5.11,5.11,0,0,0,2.64-.59,2.67,2.67,0,0,0,1.14-1.33,11.62,11.62,0,0,0,.3-3.5v-7.56l-8.86-16.13c-1.76-3.19-3-5.06-3.72-5.63a4.67,4.67,0,0,0-2.89-.87v-1h18.06v1h-.81a4,4,0,0,0-2.29.47,1.27,1.27,0,0,0-.65,1q0,1,2.22,5l6.8,12.47,6.78-11.36q2.54-4.17,2.53-5.53a1.48,1.48,0,0,0-.72-1.25,6.89,6.89,0,0,0-3.48-.83v-1Z"/></g></g></svg>