<svg xmlns="http://www.w3.org/2000/svg" viewBox="0 0 418.25 90.21"><defs><style>.cls-1{fill:#231f20;}</style></defs><g id="Layer_2" data-name="Layer 2"><g id="Layer_1-2" data-name="Layer 1"><path class="cls-1" d="M40.58,84.28a11.94,11.94,0,0,0-.91-5.53c-1.13-2.74-4.56-3.92-4.56-3.92s-.83,4,.78,6.56a9,9,0,0,0,2.44,2.31A41.29,41.29,0,0,1,33.44,82a12,12,0,0,0,.07-5.52c-.63-2.84-3.74-4.56-3.74-4.56s-1.48,3.67-.36,6.47a9.07,9.07,0,0,0,2,2.67c-1-.46-1.95-1-3-1.58-.56-.3-1.12-.63-1.67-1a11.67,11.67,0,0,0,1-5.37c-.13-2.84-2.84-5-2.84-5s-2,3.3-1.45,6.18a9.44,9.44,0,0,0,1.61,3.13,38.67,38.67,0,0,1-4.28-3.58,11.16,11.16,0,0,0,1.93-5c.36-2.77-1.88-5.35-1.88-5.35s-2.54,2.84-2.44,5.72a8.78,8.78,0,0,0,1,3.23,43.7,43.7,0,0,1-3.54-4.26,11.08,11.08,0,0,0,2.67-4.47c.82-2.61-.91-5.48-.91-5.48s-2.93,2.3-3.33,5.1a8.42,8.42,0,0,0,.36,3.13A45.61,45.61,0,0,1,12,61.76a10.93,10.93,0,0,0,3.36-3.89c1.24-2.37.06-5.44.06-5.44s-3.22,1.73-4.08,4.36A8.67,8.67,0,0,0,11.19,60a45.22,45.22,0,0,1-1.93-5.14,10.72,10.72,0,0,0,4-3.21c1.6-2.08,1-5.24,1-5.24S10.81,47.56,9.53,50a9,9,0,0,0-.73,3.3,40.45,40.45,0,0,1-1-5.65,10.45,10.45,0,0,0,4.41-2.42C14.1,43.44,14,40.29,14,40.29s-3.47.49-5.11,2.59A8.76,8.76,0,0,0,7.65,46a38.3,38.3,0,0,1-.07-6,10.2,10.2,0,0,0,4.73-1.59C14.44,37.05,14.92,34,14.92,34s-3.43-.11-5.38,1.63a9.07,9.07,0,0,0-1.85,3A40.94,40.94,0,0,1,8.8,32.42a9.91,9.91,0,0,0,4.83-.74c2.28-.94,3.27-3.81,3.27-3.81s-3.3-.69-5.47.66A8.56,8.56,0,0,0,9.19,31a43.82,43.82,0,0,1,2.16-5.82,9.88,9.88,0,0,0,4.78.11c2.37-.53,3.8-3.12,3.8-3.12s-3.06-1.23-5.38-.3a8.5,8.5,0,0,0-2.6,2,43.13,43.13,0,0,1,2.37-4.23,4.72,4.72,0,0,0,2.58-2,7.27,7.27,0,0,0,.94-3.89,9.22,9.22,0,0,0-3.13,2,6,6,0,0,0-1,3.62c-.73,1.12-1.41,2.28-2.05,3.5a8.79,8.79,0,0,0,.26-3.4c-.53-2.45-3.26-4.31-3.26-4.31s-1.35,2.64-.46,4.9a9.65,9.65,0,0,0,2.86,4,46,46,0,0,0-2.34,5.72,8.65,8.65,0,0,0-.35-3.21c-1-2.36-4-3.75-4-3.75s-.89,2.9.4,5a10,10,0,0,0,3.52,3.46A42.8,42.8,0,0,0,7,37a8,8,0,0,0-.86-2.79c-1.39-2.21-4.72-3-4.72-3s-.38,3.06,1.28,5A10.33,10.33,0,0,0,6.79,39a38.68,38.68,0,0,0-.16,5.71,7.81,7.81,0,0,0-1.35-2.6C3.5,40.09,0,39.84,0,39.84S.16,43,2.17,44.59a10.49,10.49,0,0,0,4.6,2.12,39.86,39.86,0,0,0,.73,5.37,7.9,7.9,0,0,0-1.77-2.3C3.58,48.11,0,48.48,0,48.48s.72,3.13,3,4.39a10.61,10.61,0,0,0,5,1.31,44.27,44.27,0,0,0,1.72,5.14,8.12,8.12,0,0,0-2.22-2c-2.45-1.29-6-.3-6-.3s1.28,3,3.82,3.88a10.77,10.77,0,0,0,5.23.44,44.28,44.28,0,0,0,2.59,4.81,8.3,8.3,0,0,0-2.63-1.68c-2.68-.86-6,.76-6,.76S6.33,68,9,68.42a11,11,0,0,0,5.34-.49,46,46,0,0,0,3.19,4.15A8,8,0,0,0,14.87,71c-2.86-.4-5.95,1.83-5.95,1.83s2.33,2.5,5.12,2.43a11.32,11.32,0,0,0,5.18-1.38,41.1,41.1,0,0,0,3.68,3.38,7.75,7.75,0,0,0-2.65-.51c-2.94.1-5.65,2.89-5.65,2.89s2.78,2.1,5.57,1.53a11.41,11.41,0,0,0,4.92-2.27,30,30,0,0,0,2.67,1.67c.57.34,1.13.65,1.68,1a8,8,0,0,0-2.88-.07c-2.94.63-5.16,3.9-5.16,3.9s3.17,1.62,5.87.56a11.84,11.84,0,0,0,4.57-3.18,44.79,44.79,0,0,0,4.59,1.84,8.48,8.48,0,0,0-2.85.44c-2.84,1.16-4.49,4.84-4.49,4.84s3.47,1.07,6-.48a12,12,0,0,0,4-4,45.89,45.89,0,0,0,5.14,1.07l-2.7-2Z"/><path class="cls-1" d="M92.17,52.87c2.3-1.26,3-4.39,3-4.39s-3.56-.37-5.7,1.3a7.76,7.76,0,0,0-1.78,2.3,38.32,38.32,0,0,0,.73-5.37A10.39,10.39,0,0,0,93,44.59c2-1.61,2.17-4.75,2.17-4.75s-3.49.25-5.28,2.23a7.81,7.81,0,0,0-1.35,2.6A38.68,38.68,0,0,0,88.42,39a10.2,10.2,0,0,0,4.06-2.83c1.67-1.89,1.29-5,1.29-5s-3.34.84-4.72,3A7.81,7.81,0,0,0,88.18,37a41.29,41.29,0,0,0-1.26-5.7,10.11,10.11,0,0,0,3.53-3.46c1.28-2.11.4-5,.4-5s-3.08,1.39-4,3.75a8.25,8.25,0,0,0-.35,3.21,44.53,44.53,0,0,0-2.35-5.72,9.74,9.74,0,0,0,2.87-4c.88-2.26-.47-4.9-.47-4.9s-2.73,1.86-3.25,4.31a8.6,8.6,0,0,0,.26,3.4c-.64-1.22-1.33-2.38-2-3.5a6,6,0,0,0-1-3.62,9.32,9.32,0,0,0-3.14-2,7.27,7.27,0,0,0,.94,3.89,4.79,4.79,0,0,0,2.58,2,45.36,45.36,0,0,1,2.38,4.23,8.62,8.62,0,0,0-2.6-2c-2.33-.93-5.39.3-5.39.3s1.43,2.59,3.8,3.12a9.87,9.87,0,0,0,4.78-.11A45.29,45.29,0,0,1,86,31a8.56,8.56,0,0,0-2.24-2.49c-2.17-1.35-5.47-.66-5.47-.66s1,2.87,3.26,3.81a9.91,9.91,0,0,0,4.83.74,40.94,40.94,0,0,1,1.11,6.21,8.91,8.91,0,0,0-1.85-3C83.73,33.89,80.29,34,80.29,34s.48,3,2.61,4.41A10.19,10.19,0,0,0,87.64,40a38.31,38.31,0,0,1-.08,6,8.75,8.75,0,0,0-1.27-3.08c-1.65-2.1-5.12-2.59-5.12-2.59s0,3.15,1.84,4.89a10.45,10.45,0,0,0,4.41,2.42,39,39,0,0,1-1,5.65,8.81,8.81,0,0,0-.73-3.3C84.4,47.56,81,46.44,81,46.44s-.61,3.16,1,5.24a10.72,10.72,0,0,0,4,3.21A41.72,41.72,0,0,1,84,60a8.68,8.68,0,0,0-.16-3.24c-.87-2.63-4.09-4.36-4.09-4.36s-1.17,3.07.06,5.44a10.93,10.93,0,0,0,3.37,3.89,43.87,43.87,0,0,1-2.69,4.62,8.22,8.22,0,0,0,.36-3.13c-.39-2.8-3.33-5.1-3.33-5.1s-1.72,2.87-.9,5.48a11.08,11.08,0,0,0,2.67,4.47,45.18,45.18,0,0,1-3.54,4.26,9,9,0,0,0,1-3.23c.09-2.88-2.45-5.72-2.45-5.72S72.07,66,72.43,68.76a11.4,11.4,0,0,0,1.93,5,38.59,38.59,0,0,1-4.27,3.58,9.4,9.4,0,0,0,1.6-3.13c.6-2.88-1.44-6.18-1.44-6.18s-2.71,2.2-2.84,5a11.41,11.41,0,0,0,1,5.37c-.56.35-1.12.68-1.67,1-1,.59-2,1.12-3,1.58a9.11,9.11,0,0,0,2-2.67c1.11-2.8-.36-6.47-.36-6.47s-3.11,1.72-3.74,4.56A11.69,11.69,0,0,0,61.78,82a41.4,41.4,0,0,1-4.9,1.74,9,9,0,0,0,2.44-2.31c1.62-2.61.79-6.56.79-6.56S56.68,76,55.54,78.75a12.08,12.08,0,0,0-.91,5.53l-1,.21-2.7,2a45.44,45.44,0,0,0,5.14-1.07,12,12,0,0,0,4,4c2.53,1.55,6,.48,6,.48s-1.66-3.68-4.5-4.84a8.4,8.4,0,0,0-2.85-.44,43,43,0,0,0,4.59-1.84,11.84,11.84,0,0,0,4.57,3.18c2.71,1.06,5.88-.56,5.88-.56s-2.23-3.27-5.17-3.9a8,8,0,0,0-2.87.07c.55-.3,1.11-.61,1.67-1a28.63,28.63,0,0,0,2.67-1.67A11.47,11.47,0,0,0,75,81.17c2.79.57,5.57-1.53,5.57-1.53s-2.7-2.79-5.64-2.89a7.76,7.76,0,0,0-2.66.51A41.19,41.19,0,0,0,76,73.88a11.24,11.24,0,0,0,5.18,1.38c2.79.07,5.11-2.43,5.11-2.43S83.21,70.6,80.35,71a8,8,0,0,0-2.7,1.08,48,48,0,0,0,3.2-4.15,10.9,10.9,0,0,0,5.33.49c2.7-.41,4.52-3.22,4.52-3.22s-3.35-1.62-6-.76A8.42,8.42,0,0,0,82,66.12a46.15,46.15,0,0,0,2.6-4.81,10.78,10.78,0,0,0,5.23-.44C92.39,60,93.67,57,93.67,57s-3.51-1-6,.3a8.27,8.27,0,0,0-2.22,2,42.46,42.46,0,0,0,1.72-5.14A10.64,10.64,0,0,0,92.17,52.87Z"/><polygon class="cls-1" points="47.61 80.1 48.8 83.79 52.68 83.79 49.55 86.07 50.74 89.75 47.61 87.47 44.47 89.75 45.67 86.07 42.53 83.79 46.41 83.79 47.61 80.1"/><path class="cls-1" d="M71.31,25.17a70.24,70.24,0,0,0-23.39-3.84,77.75,77.75,0,0,0-24.26,3.9,49.71,49.71,0,0,0-.72,18.93A39.34,39.34,0,0,0,33,65.23c2.83-8.74,16.74-15.42,16.74-20.41a5,5,0,0,0-5-5l-.29,0a4.4,4.4,0,1,1-3,7.88,11,11,0,0,0-6,6.22,3.62,3.62,0,0,1-3.78-.17c-.79-.43-1.67-3.56-1.25-4.5,2.92-6.52,10.91-15.68,10.91-15.68a3.54,3.54,0,0,1-1.66-2.76c-.28-1.37-2.13-1.51-2.13-1.51,10-3.32,8.57,6.8,8.57,6.8A6.79,6.79,0,0,0,47,32.91,20.76,20.76,0,0,1,60.29,66.56c.83-.83,1.66-1.72,2.48-2.67q1.42-1.66,2.64-3.39A22.37,22.37,0,0,0,46.89,31.28a6.17,6.17,0,0,0-1.14-2,5.27,5.27,0,0,0-1.93-1.42c.55,0,1.11-.06,1.67-.06A23.46,23.46,0,0,1,68.94,51.3a24,24,0,0,1-.32,3.91C73.14,46.29,74.05,36.23,71.31,25.17Z"/><polygon class="cls-1" points="40.92 36.49 37.5 40.74 39.71 40.21 40.92 36.49"/><path class="cls-1" d="M74.28,24a2.35,2.35,0,0,0-1.42-1.6,62.46,62.46,0,0,0-12-3.13,16.65,16.65,0,0,1,6.33-9.6A4.8,4.8,0,0,0,62.27,11S60.7,8.71,58.66,8.71a2.92,2.92,0,0,0-2.72,1.52,2.72,2.72,0,0,1,3.67,2.39A2.8,2.8,0,0,1,57,15.41c-1.8,0-2.85-2.47-2.85-2.81s.58-.75.58-1.34a.88.88,0,0,0-.76-1,1,1,0,0,0-.78,1c0,.5.41.91.41,1.33,0,.7-1.36,2.08-2.84,2.08s-2.53-1.53-2.53-3.28,1.06-3.26,2.35-3.26A4.56,4.56,0,0,1,53,9.08s.34-3.17-1.31-4a4,4,0,0,0-3.42.16C49.35,2.45,47.15,0,47.15,0S45,2.45,46,5.23a4,4,0,0,0-3.42-.16c-1.65.84-1.32,4-1.32,4a4.56,4.56,0,0,1,2.47-.95c1.29,0,2.36,1.52,2.36,3.26S45,14.67,43.55,14.67s-2.83-1.38-2.83-2.08c0-.42.41-.83.41-1.33a1,1,0,0,0-.78-1,.88.88,0,0,0-.76,1c0,.59.58,1,.58,1.34s-1.05,2.81-2.86,2.81a2.8,2.8,0,0,1-2.62-2.79,2.73,2.73,0,0,1,3.68-2.39,2.92,2.92,0,0,0-2.72-1.52C33.61,8.71,32,11,32,11a4.83,4.83,0,0,0-4.92-1.34,16.7,16.7,0,0,1,6.4,9.83,83.28,83.28,0,0,0-11.3,2.9A2.33,2.33,0,0,0,20.7,24a53,53,0,0,0-.9,20.67c2.45,15.35,11.54,26.85,27,34.19a2.36,2.36,0,0,0,1,.22,2.4,2.4,0,0,0,1-.24A55.26,55.26,0,0,0,65.17,66C75.31,54.14,78.37,40,74.28,24ZM61.73,11.58a.89.89,0,1,1-.89.89A.89.89,0,0,1,61.73,11.58Zm-8.2,2.79a.89.89,0,1,1-.89.89A.89.89,0,0,1,53.53,14.37Zm-6.38-8.1a.9.9,0,1,1-.89.9A.89.89,0,0,1,47.15,6.27Zm0,8.1a.89.89,0,1,1-.89.89A.89.89,0,0,1,47.15,14.37Zm-6.65,0a.89.89,0,1,1-.89.89A.89.89,0,0,1,40.5,14.37Zm-7.93-1a.89.89,0,1,1,.89-.89A.89.89,0,0,1,32.57,13.36ZM64,65A53.56,53.56,0,0,1,48.17,77.49a1,1,0,0,1-.37.08.76.76,0,0,1-.36-.08c-15-7.11-23.78-18.24-26.15-33.07a51.11,51.11,0,0,1,.87-20,.81.81,0,0,1,.54-.58,79.52,79.52,0,0,1,25.22-4.13,70.26,70.26,0,0,1,24.4,4.1.82.82,0,0,1,.5.57C76.79,39.88,73.84,53.55,64,65Z"/><path class="cls-1" d="M172.83,66.78v-.44h5.77v.44H178a1.64,1.64,0,0,0-1.47.81,3.61,3.61,0,0,0-.26,1.73v6.61a11.85,11.85,0,0,1-.48,3.81,4.85,4.85,0,0,1-1.92,2.32A6.84,6.84,0,0,1,170,83a7.32,7.32,0,0,1-4.06-.93,5.08,5.08,0,0,1-2-2.49,14.09,14.09,0,0,1-.38-4V69.22a3.15,3.15,0,0,0-.42-2,1.7,1.7,0,0,0-1.34-.47h-.61v-.44h7v.44h-.63a1.61,1.61,0,0,0-1.44.64,3.56,3.56,0,0,0-.3,1.8v7.11a16.74,16.74,0,0,0,.17,2.18,4.81,4.81,0,0,0,.63,1.91A3.6,3.6,0,0,0,168,81.55a4.64,4.64,0,0,0,2.11.44,5.74,5.74,0,0,0,2.86-.7,3.75,3.75,0,0,0,1.73-1.78,10.38,10.38,0,0,0,.46-3.69v-6.6a3.31,3.31,0,0,0-.34-1.91,1.76,1.76,0,0,0-1.39-.53Z"/><path class="cls-1" d="M185.93,66.34h4.42l10,12.23V69.16a3.14,3.14,0,0,0-.34-1.87,1.76,1.76,0,0,0-1.41-.51H198v-.44h5.68v.44h-.58a1.66,1.66,0,0,0-1.47.63,3.59,3.59,0,0,0-.26,1.75V82.91h-.44L190.19,69.78v10a3.27,3.27,0,0,0,.33,1.87,1.79,1.79,0,0,0,1.41.51h.57v.44h-5.67V82.2h.56a1.67,1.67,0,0,0,1.48-.63,3.58,3.58,0,0,0,.27-1.75V68.48a8,8,0,0,0-1.08-1.1,4,4,0,0,0-1.08-.49,3.84,3.84,0,0,0-1-.11Z"/><path class="cls-1" d="M219,82.2v.44h-7V82.2h.58a1.74,1.74,0,0,0,1.47-.59,3.71,3.71,0,0,0,.29-1.85V69.22a5.14,5.14,0,0,0-.16-1.63,1.06,1.06,0,0,0-.49-.52,2.3,2.3,0,0,0-1.11-.29H212v-.44h7v.44h-.59a1.73,1.73,0,0,0-1.45.59,3.54,3.54,0,0,0-.3,1.85V79.76a5.58,5.58,0,0,0,.15,1.63,1.1,1.1,0,0,0,.51.52,2.22,2.22,0,0,0,1.09.29Z"/><path class="cls-1" d="M244.49,66.34v.44a2.79,2.79,0,0,0-1.31.55,5.17,5.17,0,0,0-1.13,1.81L236.37,83h-.45L229.81,69a8.11,8.11,0,0,0-.66-1.33,2.22,2.22,0,0,0-.74-.58,3.43,3.43,0,0,0-1.18-.27v-.44h6.66v.44a3,3,0,0,0-1.47.39.89.89,0,0,0-.34.71,5.44,5.44,0,0,0,.56,1.87l4.15,9.56,3.84-9.44a6.3,6.3,0,0,0,.57-1.93.91.91,0,0,0-.35-.67,2.3,2.3,0,0,0-1.18-.45l-.2,0v-.44Z"/><path class="cls-1" d="M257.33,67.23v6.44h3.58a3,3,0,0,0,1.87-.42,2.71,2.71,0,0,0,.69-2h.45V77h-.45a6.21,6.21,0,0,0-.33-1.53,1.53,1.53,0,0,0-.71-.66,3.66,3.66,0,0,0-1.52-.24h-3.58v5.37a4.67,4.67,0,0,0,.1,1.32.7.7,0,0,0,.33.37,2,2,0,0,0,.92.14h2.76a7.48,7.48,0,0,0,2-.19,2.93,2.93,0,0,0,1.2-.76,9.05,9.05,0,0,0,1.53-2.25h.48l-1.41,4.09H252.69V82.2h.58a2.36,2.36,0,0,0,1.09-.28,1,1,0,0,0,.52-.58,5.67,5.67,0,0,0,.14-1.57V69.17a3.5,3.5,0,0,0-.31-1.91,1.86,1.86,0,0,0-1.44-.48h-.58v-.44h12.56l.18,3.57H265a5.57,5.57,0,0,0-.55-1.77,1.91,1.91,0,0,0-.91-.73,5.49,5.49,0,0,0-1.7-.18Z"/><path class="cls-1" d="M291.26,82.64H286.9L281.38,75l-1,0h-.34l-.37,0v4.74a3.4,3.4,0,0,0,.33,1.91,1.73,1.73,0,0,0,1.37.53H282v.44h-7V82.2h.62a1.65,1.65,0,0,0,1.48-.68,3.89,3.89,0,0,0,.25-1.76V69.22a3.28,3.28,0,0,0-.34-1.91,1.77,1.77,0,0,0-1.39-.53H275v-.44H281a13.77,13.77,0,0,1,3.83.38,4.35,4.35,0,0,1,2.1,1.39,3.64,3.64,0,0,1,.86,2.42,3.83,3.83,0,0,1-1,2.61,5.6,5.6,0,0,1-3,1.57l3.37,4.67a8.28,8.28,0,0,0,2,2.14,4.92,4.92,0,0,0,2.17.68Zm-11.58-8.38h.67a5.28,5.28,0,0,0,3.52-1,3.22,3.22,0,0,0,1.18-2.57,3.33,3.33,0,0,0-1-2.48,3.4,3.4,0,0,0-2.53-1,10.8,10.8,0,0,0-1.88.23Z"/><path class="cls-1" d="M309.72,66V71.6h-.45A7,7,0,0,0,308.5,69a4.14,4.14,0,0,0-1.6-1.53,4.36,4.36,0,0,0-2.14-.56,2.92,2.92,0,0,0-2.07.76,2.34,2.34,0,0,0-.81,1.74,2.09,2.09,0,0,0,.51,1.36,13.34,13.34,0,0,0,3.55,2.4,24.91,24.91,0,0,1,3.12,1.88,4.54,4.54,0,0,1,1.29,1.55,4.05,4.05,0,0,1,.45,1.86,4.2,4.2,0,0,1-1.44,3.19A5.17,5.17,0,0,1,305.67,83a8.11,8.11,0,0,1-1.34-.1,14.12,14.12,0,0,1-1.54-.44,6.6,6.6,0,0,0-1.49-.38.61.61,0,0,0-.47.18,1.35,1.35,0,0,0-.26.74h-.45V77.42h.45a8,8,0,0,0,.84,2.63A4.05,4.05,0,0,0,303,81.5a5,5,0,0,0,2.38.58,3.41,3.41,0,0,0,2.38-.8,2.45,2.45,0,0,0,.87-1.87,2.57,2.57,0,0,0-.33-1.22,3.52,3.52,0,0,0-1-1.14,29.77,29.77,0,0,0-2.56-1.53,25,25,0,0,1-3-1.87,5.18,5.18,0,0,1-1.34-1.54,3.86,3.86,0,0,1-.45-1.85,4,4,0,0,1,1.34-3A4.83,4.83,0,0,1,304.74,66a6.93,6.93,0,0,1,2.75.64,2.87,2.87,0,0,0,.95.3.72.72,0,0,0,.51-.18,1.47,1.47,0,0,0,.32-.76Z"/><path class="cls-1" d="M327.11,82.2v.44h-7V82.2h.58a1.77,1.77,0,0,0,1.47-.59,3.71,3.71,0,0,0,.29-1.85V69.22a5.47,5.47,0,0,0-.16-1.63,1.06,1.06,0,0,0-.49-.52,2.33,2.33,0,0,0-1.11-.29h-.58v-.44h7v.44h-.59a1.73,1.73,0,0,0-1.45.59,3.43,3.43,0,0,0-.3,1.85V79.76a5.58,5.58,0,0,0,.15,1.63,1.1,1.1,0,0,0,.51.52,2.22,2.22,0,0,0,1.09.29Z"/><path class="cls-1" d="M349.35,66.34l.18,3.82h-.46a4.76,4.76,0,0,0-.36-1.44,2.41,2.41,0,0,0-1-1,3.47,3.47,0,0,0-1.63-.33h-2.3V79.82a3.27,3.27,0,0,0,.33,1.87,1.78,1.78,0,0,0,1.4.51h.57v.44h-6.91V82.2h.57a1.66,1.66,0,0,0,1.47-.63,3.61,3.61,0,0,0,.26-1.75V67.36h-2a5.18,5.18,0,0,0-1.62.17,2.21,2.21,0,0,0-1.07.87,3.59,3.59,0,0,0-.53,1.76h-.46l.2-3.82Z"/><path class="cls-1" d="M369.27,66.34H375v.44h-.31a2.34,2.34,0,0,0-.91.28,3.61,3.61,0,0,0-1.1.79,11.29,11.29,0,0,0-1.21,1.68l-3.93,6.2v4.09a3.27,3.27,0,0,0,.33,1.87,1.87,1.87,0,0,0,1.45.51h.52v.44h-6.92V82.2h.58a1.65,1.65,0,0,0,1.46-.63,3.58,3.58,0,0,0,.27-1.75V76l-4.48-6.83a14,14,0,0,0-1.07-1.51,4.28,4.28,0,0,0-1.17-.72,1.66,1.66,0,0,0-.7-.12v-.44h7v.44h-.36a2.07,2.07,0,0,0-1,.27.84.84,0,0,0-.47.79,3.73,3.73,0,0,0,.73,1.56l3.4,5.26,3.2-5a3.69,3.69,0,0,0,.72-1.68,1.08,1.08,0,0,0-.17-.6,1.15,1.15,0,0,0-.5-.42,2.43,2.43,0,0,0-1-.15Z"/><path class="cls-1" d="M126.6,35.27V46.94a12,12,0,0,0,.32,3.61,2.9,2.9,0,0,0,1.25,1.26,5,5,0,0,0,2.52.54h1.25v1h-19.7v-1h1.25a5.17,5.17,0,0,0,2.64-.58,2.53,2.53,0,0,0,1.11-1.33,11.2,11.2,0,0,0,.31-3.5V22.16a12.11,12.11,0,0,0-.31-3.61A2.74,2.74,0,0,0,116,17.29a4.91,4.91,0,0,0-2.52-.55h-1.25v-1h19.7v1h-1.25a5.16,5.16,0,0,0-2.64.59,2.67,2.67,0,0,0-1.14,1.33,11.53,11.53,0,0,0-.31,3.5V32.83h13.31V22.16a12.11,12.11,0,0,0-.31-3.61,2.75,2.75,0,0,0-1.25-1.26,5,5,0,0,0-2.52-.55H134.6v-1h19.67v1h-1.22a5.11,5.11,0,0,0-2.64.59,2.67,2.67,0,0,0-1.14,1.33,11.53,11.53,0,0,0-.31,3.5V46.94a12.47,12.47,0,0,0,.31,3.61,2.75,2.75,0,0,0,1.25,1.26,5.08,5.08,0,0,0,2.53.54h1.22v1H134.6v-1h1.23a5.05,5.05,0,0,0,2.63-.58,2.58,2.58,0,0,0,1.14-1.33,11.2,11.2,0,0,0,.31-3.5V35.27Z"/><path class="cls-1" d="M181.81,42.66H168.5l-1.58,3.67a8.13,8.13,0,0,0-.78,3,2.53,2.53,0,0,0,1.28,2.34,10.74,10.74,0,0,0,3.69.66v1H158.59v-1a5.56,5.56,0,0,0,3.33-1.68A22.31,22.31,0,0,0,165.14,45l13.47-30.05h.53l13.58,30.89c1.3,2.92,2.37,4.77,3.2,5.52a4.32,4.32,0,0,0,2.67,1v1H180.36v-1h.75a5.71,5.71,0,0,0,3.09-.61,1.49,1.49,0,0,0,.61-1.27,3.42,3.42,0,0,0-.17-1c0-.17-.31-.86-.83-2.09Zm-.95-2-5.61-13-5.77,13Z"/><path class="cls-1" d="M240,14.86V27.91H239a13.92,13.92,0,0,0-4.56-7.83,11.58,11.58,0,0,0-7.55-2.72,11.19,11.19,0,0,0-6.48,2,11.88,11.88,0,0,0-4.3,5.31A24,24,0,0,0,214.32,34a31,31,0,0,0,1.28,9.21,12.22,12.22,0,0,0,4,6.28,11.14,11.14,0,0,0,7.05,2.12,13.84,13.84,0,0,0,6.51-1.55,22.51,22.51,0,0,0,6.24-5.36V48a20.58,20.58,0,0,1-6.6,4.79,20,20,0,0,1-8,1.48,23,23,0,0,1-10.71-2.41,17.05,17.05,0,0,1-7.22-6.95,19.43,19.43,0,0,1-2.54-9.64A20,20,0,0,1,207.14,25a19.86,19.86,0,0,1,7.61-7.5,20.58,20.58,0,0,1,10.18-2.66,23.08,23.08,0,0,1,8.39,1.72,13.2,13.2,0,0,0,3.25,1,2.11,2.11,0,0,0,1.54-.66,3.55,3.55,0,0,0,.85-2.06Z"/><path class="cls-1" d="M269.69,30.13l13.25,16.59a21.52,21.52,0,0,0,4.83,4.75,5.94,5.94,0,0,0,3.11.88v1H271.27v-1a5.3,5.3,0,0,0,2.41-.58,1.26,1.26,0,0,0,.54-1c0-.77-.86-2.24-2.56-4.39L263,35.49l-1.39,1.17V46.94A11.31,11.31,0,0,0,262,50.6a2.72,2.72,0,0,0,1.27,1.24,6.72,6.72,0,0,0,3,.51v1h-19v-1h1.25a5.17,5.17,0,0,0,2.64-.58,2.53,2.53,0,0,0,1.11-1.33,11.2,11.2,0,0,0,.31-3.5V22.16a12.11,12.11,0,0,0-.31-3.61A2.74,2.74,0,0,0,251,17.29a4.91,4.91,0,0,0-2.52-.55h-1.25v-1H266v1a6.07,6.07,0,0,0-2.91.56A2.57,2.57,0,0,0,262,18.61a10.6,10.6,0,0,0-.34,3.55V33.88l14-11.3q2.91-2.37,2.91-3.78a1.87,1.87,0,0,0-1.19-1.67,9.83,9.83,0,0,0-3-.39v-1H289v1a8.38,8.38,0,0,0-3.09.71,43.5,43.5,0,0,0-5.18,3.85Z"/><path class="cls-1" d="M307.26,15.72l18.58,23.36V22.88c0-2.26-.33-3.78-1-4.58q-1.33-1.61-4.48-1.56v-1h12.45v1a9.43,9.43,0,0,0-3.21.8,3.17,3.17,0,0,0-1.28,1.58,10.93,10.93,0,0,0-.46,3.76V54.24H327L301.48,22.88v24c0,2.16.49,3.63,1.48,4.39a5.45,5.45,0,0,0,3.41,1.13h.89v1H293.89v-1c2.08,0,3.52-.44,4.34-1.27s1.22-2.25,1.22-4.25V20.24l-.81-1a7.32,7.32,0,0,0-2.11-2,6.47,6.47,0,0,0-2.64-.53v-1Z"/><path class="cls-1" d="M352.52,17.88V33.22h.75c2.38,0,4.12-.75,5.19-2.25a14,14,0,0,0,2.06-6.64h1.05V44.05h-1.05a15,15,0,0,0-1.41-5.28A6,6,0,0,0,356.63,36a9.51,9.51,0,0,0-4.11-.71V45.91a15.28,15.28,0,0,0,.26,3.81,2.2,2.2,0,0,0,1,1.13,4.55,4.55,0,0,0,2.33.45h2.25a13.52,13.52,0,0,0,8.46-2.45,13.61,13.61,0,0,0,4.57-7.44h1l-1.69,12H338.15v-1h1.25a5.17,5.17,0,0,0,2.64-.58,2.49,2.49,0,0,0,1.11-1.33,11.2,11.2,0,0,0,.31-3.5V22.16a20.09,20.09,0,0,0-.14-3.14,2.62,2.62,0,0,0-1-1.5,4.75,4.75,0,0,0-2.89-.78h-1.25v-1h31.53V26.86h-1.05A13.67,13.67,0,0,0,366.36,21a8.44,8.44,0,0,0-4.12-2.61,22.52,22.52,0,0,0-5.84-.5Z"/><path class="cls-1" d="M418.25,15.72v1a5.52,5.52,0,0,0-2.86,1.09Q414,19,411,24.19l-8.17,13.64v9.11a12.05,12.05,0,0,0,.31,3.62,2.75,2.75,0,0,0,1.2,1.25,4.7,4.7,0,0,0,2.41.54h2.11v1H387.72v-1h2a5.12,5.12,0,0,0,2.64-.58,2.67,2.67,0,0,0,1.14-1.33,11.53,11.53,0,0,0,.31-3.5V39.38l-8.87-16.14c-1.76-3.18-3-5.06-3.72-5.62a4.65,4.65,0,0,0-2.89-.88v-1h18.06v1h-.81a4,4,0,0,0-2.29.48,1.28,1.28,0,0,0-.65,1c0,.66.74,2.34,2.22,5l6.81,12.48,6.77-11.36q2.54-4.17,2.53-5.53a1.48,1.48,0,0,0-.72-1.25,6.86,6.86,0,0,0-3.47-.84v-1Z"/></g></g></svg>