<svg xmlns="http://www.w3.org/2000/svg" viewBox="0 0 306 223.14"><defs><style>.cls-1{fill:#b99d30;}.cls-2{fill:#fff;}</style></defs><g id="Layer_2" data-name="Layer 2"><g id="Layer_1-2" data-name="Layer 1"><path class="cls-1" d="M143.5,131.9a18.89,18.89,0,0,0-1.42-8.67c-1.78-4.28-7.15-6.13-7.15-6.13s-1.3,6.19,1.23,10.27A14.44,14.44,0,0,0,140,131a64.31,64.31,0,0,1-7.66-2.73,18.54,18.54,0,0,0,.11-8.64c-1-4.44-5.86-7.13-5.86-7.13s-2.3,5.75-.55,10.12a14.17,14.17,0,0,0,3.11,4.19c-1.5-.73-3-1.55-4.63-2.48-.87-.47-1.75-1-2.62-1.53a18,18,0,0,0,1.63-8.4c-.2-4.46-4.44-7.89-4.44-7.89s-3.21,5.17-2.26,9.67a14.42,14.42,0,0,0,2.51,4.89,58.81,58.81,0,0,1-6.69-5.59,17.66,17.66,0,0,0,3-7.87c.57-4.33-2.94-8.36-2.94-8.36s-4,4.44-3.83,9a14.27,14.27,0,0,0,1.55,5,71.65,71.65,0,0,1-5.54-6.66,17.2,17.2,0,0,0,4.18-7c1.29-4.08-1.41-8.58-1.41-8.58s-4.59,3.61-5.21,8a13,13,0,0,0,.56,4.89,69.41,69.41,0,0,1-4.2-7.22,17.27,17.27,0,0,0,5.27-6.09c1.93-3.72.09-8.51.09-8.51s-5,2.7-6.39,6.82a13.22,13.22,0,0,0-.26,5.06,64.65,64.65,0,0,1-3-8,16.61,16.61,0,0,0,6.21-5c2.5-3.26,1.54-8.2,1.54-8.2s-5.33,1.75-7.33,5.49a13.87,13.87,0,0,0-1.14,5.16,61.3,61.3,0,0,1-1.58-8.83,16.28,16.28,0,0,0,6.9-3.8c3-2.72,2.88-7.65,2.88-7.65s-5.44.78-8,4a13.72,13.72,0,0,0-2,4.83,59.4,59.4,0,0,1-.12-9.33,15.78,15.78,0,0,0,7.41-2.49c3.33-2.13,4.08-6.9,4.08-6.9S98,53,94.93,55.76A14,14,0,0,0,92,60.45a65.22,65.22,0,0,1,1.73-9.72,15.58,15.58,0,0,0,7.56-1.15c3.57-1.48,5.11-6,5.11-6s-5.16-1.08-8.55,1a13.44,13.44,0,0,0-3.51,3.89,71.65,71.65,0,0,1,3.38-9.11,15.35,15.35,0,0,0,7.49.18c3.7-.83,6-4.89,6-4.89s-4.8-1.92-8.44-.46a13.45,13.45,0,0,0-4.06,3.18,71.81,71.81,0,0,1,3.72-6.63,7.47,7.47,0,0,0,4-3.09,11.33,11.33,0,0,0,1.47-6.08S104.34,23,103,24.72a9.51,9.51,0,0,0-1.51,5.67Q99.81,33,98.3,35.86a13.61,13.61,0,0,0,.4-5.32c-.82-3.83-5.09-6.74-5.09-6.74s-2.11,4.14-.73,7.67a15.19,15.19,0,0,0,4.48,6.23,71.38,71.38,0,0,0-3.66,8.95,13.34,13.34,0,0,0-.55-5c-1.51-3.7-6.32-5.87-6.32-5.87s-1.39,4.53.62,7.83A15.79,15.79,0,0,0,93,49a67.38,67.38,0,0,0-2,8.92,12.59,12.59,0,0,0-1.36-4.37c-2.17-3.45-7.39-4.77-7.39-4.77s-.59,4.8,2,7.76A16,16,0,0,0,90.62,61a60.43,60.43,0,0,0-.25,8.94,12.45,12.45,0,0,0-2.11-4.07C85.46,62.74,80,62.34,80,62.34s.25,4.93,3.4,7.44a16.06,16.06,0,0,0,7.2,3.31,61.42,61.42,0,0,0,1.14,8.41A12.2,12.2,0,0,0,89,77.9c-3.35-2.6-8.93-2-8.93-2s1.13,4.9,4.74,6.87a16.63,16.63,0,0,0,7.76,2.05,66.09,66.09,0,0,0,2.69,8,13.06,13.06,0,0,0-3.47-3.18c-3.84-2-9.34-.47-9.34-.47s2,4.73,6,6.07a16.93,16.93,0,0,0,8.18.69,71.38,71.38,0,0,0,4.06,7.53,13.24,13.24,0,0,0-4.11-2.63C92.3,99.49,87.05,102,87.05,102s2.85,4.4,7.08,5a17.26,17.26,0,0,0,8.34-.76,71.1,71.1,0,0,0,5,6.49,12.78,12.78,0,0,0-4.22-1.69C98.78,110.49,94,114,94,114s3.64,3.92,8,3.81a17.77,17.77,0,0,0,8.11-2.16,65.81,65.81,0,0,0,5.76,5.3,12.22,12.22,0,0,0-4.15-.82c-4.61.17-8.84,4.53-8.84,4.53s4.35,3.29,8.72,2.41a18,18,0,0,0,7.7-3.56,46.29,46.29,0,0,0,4.18,2.61c.89.53,1.76,1,2.62,1.49a12.5,12.5,0,0,0-4.5-.11c-4.6,1-8.08,6.11-8.08,6.11s5,2.53,9.19.87a18.43,18.43,0,0,0,7.15-5,71.28,71.28,0,0,0,7.19,2.88,12.93,12.93,0,0,0-4.46.69c-4.45,1.81-7,7.58-7,7.58s5.43,1.66,9.39-.75a19,19,0,0,0,6.29-6.25,69.22,69.22,0,0,0,8,1.67L145,132.22Z"/><path class="cls-1" d="M224.23,82.74c3.61-2,4.74-6.87,4.74-6.87s-5.58-.57-8.93,2a12.2,12.2,0,0,0-2.78,3.6,61.42,61.42,0,0,0,1.14-8.41,16.06,16.06,0,0,0,7.2-3.31c3.15-2.51,3.4-7.44,3.4-7.44s-5.47.4-8.27,3.49a12.45,12.45,0,0,0-2.11,4.07,60.43,60.43,0,0,0-.25-8.94,16,16,0,0,0,6.35-4.41c2.61-3,2-7.76,2-7.76s-5.22,1.32-7.39,4.77A12.59,12.59,0,0,0,218,57.93,67.38,67.38,0,0,0,216,49a15.71,15.71,0,0,0,5.51-5.42c2-3.3.62-7.83.62-7.83s-4.81,2.17-6.32,5.87a13.34,13.34,0,0,0-.55,5,71.38,71.38,0,0,0-3.66-8.95,15.19,15.19,0,0,0,4.48-6.23c1.39-3.53-.73-7.67-.73-7.67s-4.27,2.91-5.09,6.74a13.44,13.44,0,0,0,.41,5.32q-1.51-2.85-3.21-5.47c0-1.23-.11-3.89-1.51-5.67s-4.9-3.08-4.9-3.08a11.33,11.33,0,0,0,1.47,6.08,7.47,7.47,0,0,0,4,3.09,71.81,71.81,0,0,1,3.72,6.63,13.45,13.45,0,0,0-4.06-3.18c-3.64-1.46-8.44.46-8.44.46s2.25,4.06,5.95,4.89a15.35,15.35,0,0,0,7.49-.18,71.65,71.65,0,0,1,3.38,9.11,13.44,13.44,0,0,0-3.51-3.89c-3.39-2.11-8.55-1-8.55-1s1.54,4.48,5.11,6a15.58,15.58,0,0,0,7.56,1.15A65.22,65.22,0,0,1,217,60.45a14,14,0,0,0-2.9-4.69c-3-2.72-8.41-2.55-8.41-2.55s.75,4.77,4.08,6.9a15.78,15.78,0,0,0,7.41,2.49,59.4,59.4,0,0,1-.12,9.33,13.72,13.72,0,0,0-2-4.83c-2.57-3.27-8-4-8-4s-.08,4.93,2.88,7.65a16.28,16.28,0,0,0,6.9,3.8,60,60,0,0,1-1.58,8.83,13.68,13.68,0,0,0-1.14-5.16c-2-3.74-7.33-5.49-7.33-5.49s-1,4.94,1.54,8.2a16.61,16.61,0,0,0,6.21,5,64.65,64.65,0,0,1-3,8,13.22,13.22,0,0,0-.26-5.06c-1.35-4.12-6.39-6.82-6.39-6.82s-1.84,4.79.09,8.51a17.27,17.27,0,0,0,5.27,6.09,69.41,69.41,0,0,1-4.2,7.22,13.43,13.43,0,0,0,.57-4.89c-.63-4.38-5.22-8-5.22-8s-2.7,4.5-1.41,8.58a17.2,17.2,0,0,0,4.18,7,71.65,71.65,0,0,1-5.54,6.66,14.07,14.07,0,0,0,1.55-5c.14-4.51-3.83-9-3.83-9s-3.51,4-2.94,8.36a17.52,17.52,0,0,0,3,7.87,59.78,59.78,0,0,1-6.7,5.59,14.42,14.42,0,0,0,2.51-4.89c.95-4.5-2.26-9.67-2.26-9.67s-4.24,3.43-4.44,7.89a18,18,0,0,0,1.63,8.4c-.87.55-1.74,1.06-2.62,1.53-1.58.93-3.12,1.75-4.63,2.48a14.17,14.17,0,0,0,3.11-4.19c1.75-4.37-.55-10.12-.55-10.12s-4.88,2.69-5.86,7.13a18.54,18.54,0,0,0,.11,8.64A64.31,64.31,0,0,1,169,131a14.44,14.44,0,0,0,3.82-3.62c2.53-4.08,1.23-10.27,1.23-10.27s-5.37,1.85-7.15,6.13a18.89,18.89,0,0,0-1.42,8.67l-1.5.32-4.23,3.07a69.22,69.22,0,0,0,8-1.67,19,19,0,0,0,6.29,6.25c4,2.41,9.39.75,9.39.75s-2.59-5.77-7-7.58a12.93,12.93,0,0,0-4.46-.69,71.28,71.28,0,0,0,7.19-2.88,18.43,18.43,0,0,0,7.15,5c4.23,1.66,9.19-.87,9.19-.87s-3.48-5.13-8.08-6.11a12.5,12.5,0,0,0-4.5.11c.86-.47,1.74-1,2.62-1.49a47.74,47.74,0,0,0,4.18-2.61,18,18,0,0,0,7.7,3.56c4.37.88,8.72-2.41,8.72-2.41s-4.23-4.36-8.84-4.53a12.22,12.22,0,0,0-4.15.82,65.81,65.81,0,0,0,5.76-5.3,17.77,17.77,0,0,0,8.11,2.16c4.37.11,8-3.81,8-3.81s-4.82-3.48-9.3-2.86a12.78,12.78,0,0,0-4.22,1.69,71.1,71.1,0,0,0,5-6.49,17.26,17.26,0,0,0,8.34.76c4.23-.64,7.08-5,7.08-5s-5.25-2.54-9.46-1.18a13.24,13.24,0,0,0-4.11,2.63A71.38,71.38,0,0,0,212.43,96a16.93,16.93,0,0,0,8.18-.69c4-1.34,6-6.07,6-6.07s-5.5-1.55-9.34.47a13.06,13.06,0,0,0-3.47,3.18,66.09,66.09,0,0,0,2.69-8A16.63,16.63,0,0,0,224.23,82.74Z"/><polygon class="cls-1" points="154.5 125.36 156.37 131.13 162.43 131.13 157.53 134.69 159.4 140.46 154.5 136.89 149.59 140.46 151.46 134.69 146.56 131.13 152.62 131.13 154.5 125.36"/><path class="cls-1" d="M191.59,39.38a110.23,110.23,0,0,0-36.61-6,122,122,0,0,0-38,6.09,78,78,0,0,0-1.14,29.63,61.63,61.63,0,0,0,15.81,33c4.42-13.68,26.19-24.14,26.19-31.94a7.78,7.78,0,0,0-7.78-7.79l-.45,0A6.89,6.89,0,1,1,145,74.7a17.32,17.32,0,0,0-9.46,9.75,5.63,5.63,0,0,1-5.92-.28c-1.25-.67-2.62-5.55-2-7,4.57-10.2,17.08-24.54,17.08-24.54-1.69-1.24-2.14-2-2.61-4.31-.43-2.16-3.33-2.37-3.33-2.37,15.63-5.2,13.42,10.64,13.42,10.64a10.67,10.67,0,0,0,1.29-5.06,32.49,32.49,0,0,1,20.84,52.66c1.3-1.3,2.6-2.69,3.87-4.18,1.49-1.73,2.86-3.49,4.14-5.29a35,35,0,0,0-29-45.75,9.91,9.91,0,0,0-1.79-3.06,8.27,8.27,0,0,0-3-2.21c.87-.06,1.74-.09,2.62-.09a36.71,36.71,0,0,1,36.71,36.7,37.35,37.35,0,0,1-.51,6.12C194.45,72.44,195.88,56.69,191.59,39.38Z"/><polygon class="cls-1" points="144.03 57.1 138.67 63.76 142.13 62.93 144.03 57.1"/><path class="cls-1" d="M196.23,37.5A3.66,3.66,0,0,0,194,35a99,99,0,0,0-18.79-4.9c2.82-10.61,9.91-15,9.91-15-5.16-1.17-7.69,2.11-7.69,2.11s-2.46-3.54-5.65-3.54A4.56,4.56,0,0,0,167.53,16a4.27,4.27,0,0,1,5.76,3.75c0,1.58-1.29,4.36-4.11,4.36s-4.46-3.88-4.46-4.4.91-1.17.91-2.1a1.38,1.38,0,0,0-1.19-1.5,1.52,1.52,0,0,0-1.22,1.5c0,.79.63,1.42.63,2.09,0,1.09-2.13,3.26-4.43,3.26s-4-2.41-4-5.14,1.67-5.11,3.69-5.11A7.1,7.1,0,0,1,163,14.21s.53-5-2.06-6.27a6.2,6.2,0,0,0-5.35.25C157.22,3.83,153.78,0,153.78,0s-3.43,3.83-1.8,8.19a6.2,6.2,0,0,0-5.35-.25c-2.59,1.31-2.06,6.27-2.06,6.27a7.1,7.1,0,0,1,3.86-1.49c2,0,3.69,2.38,3.69,5.11s-1.67,5.14-4,5.14-4.43-2.17-4.43-3.26c0-.67.63-1.3.63-2.09a1.52,1.52,0,0,0-1.22-1.5,1.38,1.38,0,0,0-1.19,1.5c0,.93.91,1.58.91,2.1s-1.64,4.4-4.46,4.4-4.11-2.78-4.11-4.36A4.26,4.26,0,0,1,140,16a4.56,4.56,0,0,0-4.25-2.38c-3.19,0-5.65,3.54-5.65,3.54s-2.53-3.28-7.69-2.11c0,0,7.26,4.52,10,15.4A127.78,127.78,0,0,0,114.77,35a3.64,3.64,0,0,0-2.38,2.54A82.74,82.74,0,0,0,111,69.89c3.84,24,18,42,42.24,53.51a3.69,3.69,0,0,0,3.2,0A86.22,86.22,0,0,0,182,103.22C197.85,84.72,202.64,62.62,196.23,37.5ZM176.6,18.12a1.4,1.4,0,1,1-1.39,1.4A1.4,1.4,0,0,1,176.6,18.12Zm-12.84,4.37a1.4,1.4,0,1,1-1.39,1.39A1.39,1.39,0,0,1,163.76,22.49Zm-10-12.67a1.4,1.4,0,1,1-1.39,1.4A1.39,1.39,0,0,1,153.78,9.82Zm0,12.67a1.4,1.4,0,1,1-1.39,1.39A1.39,1.39,0,0,1,153.78,22.49Zm-10.4,0a1.4,1.4,0,1,1-1.4,1.39A1.4,1.4,0,0,1,143.38,22.49ZM131,20.91a1.4,1.4,0,1,1,1.39-1.39A1.4,1.4,0,0,1,131,20.91Zm49.23,80.77a83.64,83.64,0,0,1-24.82,19.58,1.34,1.34,0,0,1-.58.14,1.18,1.18,0,0,1-.56-.13C130.79,110.15,117,92.73,113.31,69.52a80.27,80.27,0,0,1,1.36-31.39,1.3,1.3,0,0,1,.85-.9A124.33,124.33,0,0,1,155,30.77c20.06,0,34.3,4.91,38.19,6.42a1.31,1.31,0,0,1,.79.89C200.17,62.41,195.54,83.81,180.2,101.68Z"/><path class="cls-2" d="M60.58,206.89v-.44h5.77v.44h-.61a1.66,1.66,0,0,0-1.48.81,3.65,3.65,0,0,0-.25,1.73V216a11.53,11.53,0,0,1-.49,3.81,4.77,4.77,0,0,1-1.91,2.32,6.77,6.77,0,0,1-3.88,1,7.26,7.26,0,0,1-4-.93,5,5,0,0,1-2-2.49,13.69,13.69,0,0,1-.38-4v-6.38a3.15,3.15,0,0,0-.42-2,1.72,1.72,0,0,0-1.34-.47H49v-.44h7v.44h-.62a1.61,1.61,0,0,0-1.44.64,3.54,3.54,0,0,0-.31,1.8v7.11a15.29,15.29,0,0,0,.18,2.18,4.81,4.81,0,0,0,.63,1.91,3.36,3.36,0,0,0,1.32,1.13,4.48,4.48,0,0,0,2.11.44,5.87,5.87,0,0,0,2.86-.69,3.7,3.7,0,0,0,1.72-1.79,10.22,10.22,0,0,0,.47-3.68v-6.61a3.33,3.33,0,0,0-.34-1.91,1.77,1.77,0,0,0-1.39-.53Z"/><path class="cls-2" d="M73.68,206.45h4.43l10,12.23v-9.41a3.25,3.25,0,0,0-.34-1.87,1.79,1.79,0,0,0-1.41-.51h-.56v-.44h5.67v.44h-.57a1.66,1.66,0,0,0-1.47.63,3.55,3.55,0,0,0-.27,1.75V223H88.7L78,209.89v10a3.25,3.25,0,0,0,.33,1.87,1.78,1.78,0,0,0,1.4.51h.58v.44H74.58v-.44h.57a1.67,1.67,0,0,0,1.48-.63,3.71,3.71,0,0,0,.26-1.75V208.59a8.08,8.08,0,0,0-1.07-1.1,4.25,4.25,0,0,0-1.08-.49,3.87,3.87,0,0,0-1.06-.11Z"/><path class="cls-2" d="M106.78,222.31v.44h-7v-.44h.58a1.77,1.77,0,0,0,1.47-.59,3.72,3.72,0,0,0,.28-1.85V209.33a5.58,5.58,0,0,0-.15-1.63,1.15,1.15,0,0,0-.49-.52,2.36,2.36,0,0,0-1.11-.29h-.58v-.44h7v.44h-.59a1.75,1.75,0,0,0-1.46.59,3.56,3.56,0,0,0-.3,1.85v10.54a5.47,5.47,0,0,0,.16,1.63,1.06,1.06,0,0,0,.51.52,2.2,2.2,0,0,0,1.09.29Z"/><path class="cls-2" d="M132.25,206.45v.44a2.65,2.65,0,0,0-1.31.56,5,5,0,0,0-1.13,1.8l-5.69,13.88h-.44l-6.11-14.06a7.43,7.43,0,0,0-.66-1.32,2.13,2.13,0,0,0-.74-.59,3.43,3.43,0,0,0-1.19-.27v-.44h6.67v.44a3,3,0,0,0-1.47.39.86.86,0,0,0-.34.71,5.44,5.44,0,0,0,.56,1.87l4.14,9.56,3.85-9.44a6.3,6.3,0,0,0,.57-1.93.91.91,0,0,0-.35-.67,2.34,2.34,0,0,0-1.18-.45l-.2,0v-.44Z"/><path class="cls-2" d="M145.09,207.34v6.44h3.58a2.91,2.91,0,0,0,1.86-.42,2.71,2.71,0,0,0,.7-2h.45v5.68h-.45a5.84,5.84,0,0,0-.34-1.53,1.48,1.48,0,0,0-.71-.66,3.58,3.58,0,0,0-1.51-.24h-3.58V220a5.23,5.23,0,0,0,.09,1.31.83.83,0,0,0,.34.38,2.08,2.08,0,0,0,.91.13h2.77a7.48,7.48,0,0,0,2-.19,3.06,3.06,0,0,0,1.2-.76,9,9,0,0,0,1.53-2.24h.48L153,222.75H140.45v-.44H141a2.25,2.25,0,0,0,1.1-.28,1,1,0,0,0,.52-.58,5.67,5.67,0,0,0,.14-1.57V209.29a3.49,3.49,0,0,0-.32-1.92,1.84,1.84,0,0,0-1.44-.48h-.57v-.44H153l.18,3.57h-.47a5.52,5.52,0,0,0-.56-1.77,1.87,1.87,0,0,0-.91-.73,5.41,5.41,0,0,0-1.69-.18Z"/><path class="cls-2" d="M179,222.75h-4.35l-5.52-7.62c-.41,0-.74,0-1,0h-.33l-.38,0v4.74a3.28,3.28,0,0,0,.34,1.91,1.71,1.71,0,0,0,1.37.53h.64v.44h-7v-.44h.61a1.65,1.65,0,0,0,1.48-.67,3.76,3.76,0,0,0,.26-1.77V209.33a3.37,3.37,0,0,0-.34-1.91,1.78,1.78,0,0,0-1.4-.53h-.61v-.44h5.94a13.82,13.82,0,0,1,3.83.38,4.32,4.32,0,0,1,2.09,1.39,3.61,3.61,0,0,1,.86,2.42,3.75,3.75,0,0,1-1,2.61,5.53,5.53,0,0,1-3,1.57l3.36,4.67a8.36,8.36,0,0,0,2,2.15,5.05,5.05,0,0,0,2.16.67Zm-11.58-8.38h.68a5.25,5.25,0,0,0,3.51-1,3.23,3.23,0,0,0,1.19-2.57,3.35,3.35,0,0,0-1-2.48,3.42,3.42,0,0,0-2.53-1,11,11,0,0,0-1.89.23Z"/><path class="cls-2" d="M197.47,206.08v5.63H197a6.79,6.79,0,0,0-.78-2.58,4,4,0,0,0-1.59-1.53,4.47,4.47,0,0,0-2.14-.56,2.92,2.92,0,0,0-2.07.76,2.35,2.35,0,0,0-.82,1.74,2.09,2.09,0,0,0,.52,1.36,13.34,13.34,0,0,0,3.55,2.4,26.22,26.22,0,0,1,3.12,1.88,4.64,4.64,0,0,1,1.29,1.55,4.05,4.05,0,0,1,.45,1.86,4.23,4.23,0,0,1-1.44,3.2,5.22,5.22,0,0,1-3.7,1.34,8,8,0,0,1-1.33-.11,14.07,14.07,0,0,1-1.55-.44,7.07,7.07,0,0,0-1.48-.38.65.65,0,0,0-.48.18,1.54,1.54,0,0,0-.26.75h-.44v-5.6h.44a7.69,7.69,0,0,0,.85,2.63,4,4,0,0,0,1.61,1.45,5,5,0,0,0,2.39.58,3.38,3.38,0,0,0,2.37-.8,2.41,2.41,0,0,0,.88-1.87,2.57,2.57,0,0,0-.33-1.22,3.74,3.74,0,0,0-1-1.14,29.77,29.77,0,0,0-2.56-1.53,25,25,0,0,1-3-1.87,5,5,0,0,1-1.34-1.54,3.87,3.87,0,0,1-.46-1.85,4,4,0,0,1,1.35-3,4.82,4.82,0,0,1,3.43-1.26,7,7,0,0,1,2.75.63,2.87,2.87,0,0,0,.95.3.72.72,0,0,0,.51-.18,1.56,1.56,0,0,0,.32-.75Z"/><path class="cls-2" d="M214.87,222.31v.44h-7v-.44h.58a1.73,1.73,0,0,0,1.46-.59,3.57,3.57,0,0,0,.29-1.85V209.33a5.58,5.58,0,0,0-.15-1.63,1.13,1.13,0,0,0-.5-.52,2.29,2.29,0,0,0-1.1-.29h-.58v-.44h7v.44h-.59a1.75,1.75,0,0,0-1.46.59,3.56,3.56,0,0,0-.3,1.85v10.54a5.14,5.14,0,0,0,.16,1.63,1.08,1.08,0,0,0,.5.52,2.26,2.26,0,0,0,1.1.29Z"/><path class="cls-2" d="M237.11,206.45l.18,3.82h-.46a4.76,4.76,0,0,0-.36-1.44,2.41,2.41,0,0,0-1-1,3.5,3.5,0,0,0-1.63-.33h-2.3v12.46a3.37,3.37,0,0,0,.32,1.87,1.82,1.82,0,0,0,1.41.51h.57v.44h-6.92v-.44h.58a1.66,1.66,0,0,0,1.47-.63,3.71,3.71,0,0,0,.26-1.75V207.47h-2a5.51,5.51,0,0,0-1.62.17,2.14,2.14,0,0,0-1.07.88,3.42,3.42,0,0,0-.53,1.75h-.46l.19-3.82Z"/><path class="cls-2" d="M257,206.45h5.69v.44h-.31a2.57,2.57,0,0,0-.92.28,3.57,3.57,0,0,0-1.09.79,11.6,11.6,0,0,0-1.22,1.69l-3.93,6.19v4.09a3.23,3.23,0,0,0,.34,1.87,1.84,1.84,0,0,0,1.44.51h.53v.44h-6.93v-.44h.58a1.66,1.66,0,0,0,1.47-.63,3.59,3.59,0,0,0,.26-1.75v-3.86l-4.47-6.83a16,16,0,0,0-1.08-1.51,4,4,0,0,0-1.17-.72,1.6,1.6,0,0,0-.7-.12v-.44h7v.44h-.36a2.07,2.07,0,0,0-1,.27.84.84,0,0,0-.48.79,3.8,3.8,0,0,0,.74,1.56l3.4,5.26,3.2-5a3.69,3.69,0,0,0,.72-1.68,1.11,1.11,0,0,0-.17-.6,1.21,1.21,0,0,0-.5-.42,2.45,2.45,0,0,0-1-.15Z"/><path class="cls-2" d="M14.36,175.38v11.67a11.93,11.93,0,0,0,.32,3.61,2.91,2.91,0,0,0,1.25,1.27,5,5,0,0,0,2.51.54h1.25v1H0v-1H1.25a5.21,5.21,0,0,0,2.64-.59A2.53,2.53,0,0,0,5,190.55a11.49,11.49,0,0,0,.31-3.5V162.27A12.47,12.47,0,0,0,5,158.66a2.77,2.77,0,0,0-1.24-1.26,5,5,0,0,0-2.51-.54H0v-1H19.69v1H18.44a5.15,5.15,0,0,0-2.63.58,2.58,2.58,0,0,0-1.14,1.33,11.2,11.2,0,0,0-.31,3.5v10.67H27.67V162.27a12.47,12.47,0,0,0-.31-3.61,2.75,2.75,0,0,0-1.25-1.26,5.08,5.08,0,0,0-2.53-.54H22.36v-1H42v1H40.8a5.05,5.05,0,0,0-2.63.58A2.58,2.58,0,0,0,37,158.77a11.2,11.2,0,0,0-.31,3.5v24.78a12.06,12.06,0,0,0,.31,3.61,2.81,2.81,0,0,0,1.25,1.27,5.07,5.07,0,0,0,2.52.54H42v1H22.36v-1h1.22a5.11,5.11,0,0,0,2.64-.59,2.67,2.67,0,0,0,1.14-1.33,11.49,11.49,0,0,0,.31-3.5V175.38Z"/><path class="cls-2" d="M69.57,182.77H56.26l-1.58,3.67a8.12,8.12,0,0,0-.78,3,2.5,2.5,0,0,0,1.28,2.33,10.66,10.66,0,0,0,3.69.67v1H46.34v-1a5.67,5.67,0,0,0,3.34-1.68,22.5,22.5,0,0,0,3.22-5.68l13.47-30.06h.53l13.58,30.89c1.3,2.93,2.36,4.77,3.2,5.53a4.41,4.41,0,0,0,2.66,1v1H68.12v-1h.75a5.77,5.77,0,0,0,3.08-.61,1.5,1.5,0,0,0,.62-1.28,3.42,3.42,0,0,0-.17-1c0-.17-.32-.86-.83-2.08Zm-.95-2.05-5.61-13-5.78,13Z"/><path class="cls-2" d="M127.8,155V168h-1.09a13.89,13.89,0,0,0-4.55-7.83,11.65,11.65,0,0,0-7.56-2.72,11.1,11.1,0,0,0-6.47,2,11.79,11.79,0,0,0-4.3,5.3,24,24,0,0,0-1.75,9.33,31.31,31.31,0,0,0,1.27,9.21,12.35,12.35,0,0,0,4,6.28,11.13,11.13,0,0,0,7.06,2.12,13.72,13.72,0,0,0,6.51-1.55,22.62,22.62,0,0,0,6.24-5.36v3.25a20.58,20.58,0,0,1-6.6,4.79,20,20,0,0,1-8,1.49,23,23,0,0,1-10.71-2.42A17.05,17.05,0,0,1,94.62,185a19.29,19.29,0,0,1-2.54-9.63,20,20,0,0,1,2.82-10.23,19.79,19.79,0,0,1,7.61-7.5A20.66,20.66,0,0,1,112.69,155a23.12,23.12,0,0,1,8.39,1.72,12.63,12.63,0,0,0,3.25,1,2.13,2.13,0,0,0,1.54-.65,3.61,3.61,0,0,0,.84-2.07Z"/><path class="cls-2" d="M157.45,170.25l13.25,16.58a21.52,21.52,0,0,0,4.83,4.75,6,6,0,0,0,3.11.89v1H159v-1a5.18,5.18,0,0,0,2.4-.59,1.24,1.24,0,0,0,.54-1q0-1.17-2.55-4.39l-8.64-10.86-1.39,1.16v10.28a11.82,11.82,0,0,0,.33,3.67A2.83,2.83,0,0,0,151,192a6.56,6.56,0,0,0,3,.52v1H135v-1h1.25a5.21,5.21,0,0,0,2.64-.59,2.53,2.53,0,0,0,1.11-1.33,11.49,11.49,0,0,0,.31-3.5V162.27a12.47,12.47,0,0,0-.31-3.61,2.77,2.77,0,0,0-1.24-1.26,5,5,0,0,0-2.51-.54H135v-1h18.75v1a6.16,6.16,0,0,0-2.92.55,2.7,2.7,0,0,0-1.14,1.31,11,11,0,0,0-.33,3.55V174l14-11.31q2.92-2.35,2.92-3.78a1.84,1.84,0,0,0-1.2-1.66,9.09,9.09,0,0,0-3-.39v-1h14.69v1a8.46,8.46,0,0,0-3.1.7,45.7,45.7,0,0,0-5.18,3.85Z"/><path class="cls-2" d="M195,155.83l18.59,23.36V163c0-2.26-.33-3.79-1-4.59q-1.34-1.6-4.47-1.55v-1h12.44v1a9.18,9.18,0,0,0-3.2.79,3.17,3.17,0,0,0-1.28,1.58,10.71,10.71,0,0,0-.46,3.77v31.36h-.94L189.23,163v23.94c0,2.17.5,3.63,1.49,4.39a5.45,5.45,0,0,0,3.4,1.14H195v1H181.65v-1c2.08,0,3.52-.45,4.33-1.28s1.23-2.25,1.23-4.25V160.36l-.81-1a7.51,7.51,0,0,0-2.11-2,6.33,6.33,0,0,0-2.64-.52v-1Z"/><path class="cls-2" d="M240.27,158v15.33H241q3.58,0,5.2-2.25a13.81,13.81,0,0,0,2.05-6.64h1.06v19.72h-1.06a14.79,14.79,0,0,0-1.4-5.28,6,6,0,0,0-2.49-2.76,9.45,9.45,0,0,0-4.11-.71V186a15,15,0,0,0,.27,3.81,2.28,2.28,0,0,0,1,1.14,4.72,4.72,0,0,0,2.34.44h2.25a12.13,12.13,0,0,0,13-9.89h1l-1.69,12H225.91v-1h1.25a5.21,5.21,0,0,0,2.64-.59,2.53,2.53,0,0,0,1.11-1.33,11.15,11.15,0,0,0,.31-3.5V162.27a20.09,20.09,0,0,0-.14-3.14,2.74,2.74,0,0,0-1-1.5,4.84,4.84,0,0,0-2.89-.77h-1.25v-1h31.53V167h-1.06a13.5,13.5,0,0,0-2.26-5.86A8.33,8.33,0,0,0,250,158.5a22,22,0,0,0-5.83-.5Z"/><path class="cls-2" d="M306,155.83v1a5.47,5.47,0,0,0-2.86,1.08c-.92.78-2.39,2.9-4.39,6.36l-8.16,13.64v9.11a12.7,12.7,0,0,0,.3,3.63,2.93,2.93,0,0,0,1.21,1.25,4.64,4.64,0,0,0,2.4.54h2.12v1H275.48v-1h2a5.11,5.11,0,0,0,2.64-.59,2.67,2.67,0,0,0,1.14-1.33,11.62,11.62,0,0,0,.3-3.5V179.5l-8.86-16.14c-1.76-3.19-3-5.06-3.72-5.63a4.73,4.73,0,0,0-2.89-.87v-1h18.06v1h-.81a4,4,0,0,0-2.29.47,1.27,1.27,0,0,0-.65,1c0,.67.74,2.34,2.22,5l6.8,12.47,6.78-11.36q2.54-4.17,2.53-5.53a1.48,1.48,0,0,0-.72-1.25,6.89,6.89,0,0,0-3.48-.83v-1Z"/></g></g></svg>